<svg width="400" height="48" viewBox="0 0 400 48" fill="none" xmlns="http://www.w3.org/2000/svg">
<rect width="115" height="48" rx="24" fill="#292F33"/>
<g clip-path="url(#clip0_495_40599)">
<rect x="25.2686" y="25.8154" width="5.07386" height="5.07386" rx="1.25" stroke="#27E09D" stroke-width="1.5"/>
<circle cx="27.8055" cy="19.867" r="2.53693" stroke="#27E09D" stroke-width="1.5"/>
<path d="M36.8354 18.8901C36.9527 19.2071 37.2031 19.4574 37.52 19.5747L38.3091 19.8667L37.52 20.1587C37.2429 20.2612 37.017 20.4655 36.8862 20.7271L36.8354 20.8433L36.5435 21.6323L36.2515 20.8433L36.2017 20.7271C36.0709 20.4654 35.8441 20.2613 35.5669 20.1587L34.7769 19.8667L35.5669 19.5747C35.8838 19.4574 36.1342 19.2071 36.2515 18.8901L36.5435 18.1001L36.8354 18.8901Z" stroke="#27E09D" stroke-width="1.5"/>
<path d="M39.5265 30.4118C38.5947 30.9683 37.5179 31.2859 36.3709 31.2859C35.2239 31.2859 34.1471 30.9683 33.2153 30.4117C33.4761 28.2759 34.6795 26.4517 36.3709 25.4189C38.0623 26.4517 39.2657 28.2759 39.5265 30.4118Z" stroke="#27E09D" stroke-width="1.5" stroke-linecap="round" stroke-linejoin="round"/>
</g>
<path d="M55.2557 18.3636V30H53.1477V18.3636H55.2557ZM61.8054 21.2727V22.8636H56.7884V21.2727H61.8054ZM58.027 19.1818H60.0838V27.375C60.0838 27.6515 60.1255 27.8636 60.2088 28.0114C60.2959 28.1553 60.4096 28.2538 60.5497 28.3068C60.6899 28.3598 60.8452 28.3864 61.0156 28.3864C61.1444 28.3864 61.2618 28.3769 61.3679 28.358C61.4777 28.339 61.5611 28.322 61.6179 28.3068L61.9645 29.9148C61.8546 29.9527 61.6974 29.9943 61.4929 30.0398C61.2921 30.0852 61.0459 30.1117 60.7543 30.1193C60.2391 30.1345 59.7751 30.0568 59.3622 29.8864C58.9493 29.7121 58.6217 29.4432 58.3793 29.0795C58.1406 28.7159 58.0232 28.2614 58.027 27.7159V19.1818ZM67.2955 30.1705C66.4205 30.1705 65.6648 29.9886 65.0284 29.625C64.3958 29.2576 63.9091 28.7386 63.5682 28.0682C63.2273 27.3939 63.0568 26.6004 63.0568 25.6875C63.0568 24.7898 63.2273 24.0019 63.5682 23.3239C63.9129 22.642 64.3939 22.1117 65.0114 21.733C65.6288 21.3504 66.3542 21.1591 67.1875 21.1591C67.7254 21.1591 68.233 21.2462 68.7102 21.4205C69.1913 21.5909 69.6155 21.8561 69.983 22.2159C70.3542 22.5758 70.6458 23.0341 70.858 23.5909C71.0701 24.1439 71.1761 24.803 71.1761 25.5682V26.1989H64.0227V24.8125H69.2045C69.2008 24.4186 69.1155 24.0682 68.9489 23.7614C68.7822 23.4508 68.5492 23.2064 68.25 23.0284C67.9545 22.8504 67.6098 22.7614 67.2159 22.7614C66.7955 22.7614 66.4261 22.8636 66.108 23.0682C65.7898 23.2689 65.5417 23.5341 65.3636 23.8636C65.1894 24.1894 65.1004 24.5473 65.0966 24.9375V26.1477C65.0966 26.6553 65.1894 27.0909 65.375 27.4545C65.5606 27.8144 65.8201 28.0909 66.1534 28.2841C66.4867 28.4735 66.8769 28.5682 67.3239 28.5682C67.6231 28.5682 67.8939 28.5265 68.1364 28.4432C68.3788 28.3561 68.589 28.2292 68.767 28.0625C68.9451 27.8958 69.0795 27.6894 69.1705 27.4432L71.0909 27.6591C70.9697 28.1667 70.7386 28.6098 70.3977 28.9886C70.0606 29.3636 69.6288 29.6553 69.1023 29.8636C68.5758 30.0682 67.9735 30.1705 67.2955 30.1705ZM72.9162 30V21.2727H74.8821V22.7557H74.9844C75.1662 22.2557 75.4673 21.8655 75.8878 21.5852C76.3082 21.3011 76.8101 21.1591 77.3935 21.1591C77.9844 21.1591 78.4825 21.303 78.8878 21.5909C79.2969 21.875 79.5848 22.2633 79.7514 22.7557H79.8423C80.0355 22.2708 80.3613 21.8845 80.8196 21.5966C81.2817 21.3049 81.8291 21.1591 82.4616 21.1591C83.2647 21.1591 83.92 21.4129 84.4276 21.9205C84.9351 22.428 85.1889 23.1686 85.1889 24.142V30H83.1264V24.4602C83.1264 23.9186 82.9825 23.5227 82.6946 23.2727C82.4067 23.0189 82.0545 22.892 81.6378 22.892C81.1416 22.892 80.7533 23.0473 80.473 23.358C80.1965 23.6648 80.0582 24.0644 80.0582 24.5568V30H78.0412V24.375C78.0412 23.9242 77.9048 23.5644 77.6321 23.2955C77.3632 23.0265 77.0109 22.892 76.5753 22.892C76.2798 22.892 76.0109 22.9678 75.7685 23.1193C75.526 23.267 75.3329 23.4773 75.1889 23.75C75.045 24.0189 74.973 24.3333 74.973 24.6932V30H72.9162ZM94.1733 23.5795L92.2983 23.7841C92.2453 23.5947 92.1525 23.4167 92.0199 23.25C91.8911 23.0833 91.7169 22.9489 91.4972 22.8466C91.2775 22.7443 91.0085 22.6932 90.6903 22.6932C90.2623 22.6932 89.9025 22.786 89.6108 22.9716C89.3229 23.1572 89.1809 23.3977 89.1847 23.6932C89.1809 23.947 89.2737 24.1534 89.4631 24.3125C89.6563 24.4716 89.9744 24.6023 90.4176 24.7045L91.9062 25.0227C92.732 25.2008 93.3456 25.483 93.7472 25.8693C94.1525 26.2557 94.357 26.7614 94.3608 27.3864C94.357 27.9356 94.196 28.4205 93.8778 28.8409C93.5634 29.2576 93.1259 29.5833 92.5653 29.8182C92.0047 30.053 91.3608 30.1705 90.6335 30.1705C89.5653 30.1705 88.7055 29.947 88.054 29.5C87.4025 29.0492 87.0142 28.4223 86.8892 27.6193L88.8949 27.4261C88.9858 27.8201 89.179 28.1174 89.4744 28.3182C89.7699 28.5189 90.1544 28.6193 90.6278 28.6193C91.1165 28.6193 91.5085 28.5189 91.804 28.3182C92.1032 28.1174 92.2528 27.8693 92.2528 27.5739C92.2528 27.3239 92.1563 27.1174 91.9631 26.9545C91.7737 26.7917 91.4782 26.6667 91.0767 26.5795L89.5881 26.267C88.7509 26.0928 88.1316 25.7992 87.7301 25.3864C87.3286 24.9697 87.1297 24.4432 87.1335 23.8068C87.1297 23.2689 87.2756 22.803 87.571 22.4091C87.8703 22.0114 88.285 21.7045 88.8153 21.4886C89.3494 21.2689 89.965 21.1591 90.6619 21.1591C91.6847 21.1591 92.4896 21.3769 93.0767 21.8125C93.6676 22.2481 94.0331 22.8371 94.1733 23.5795Z" fill="#FCFCFD"/>
<rect x="123" width="139" height="48" rx="24" fill="#1B1F24"/>
<g clip-path="url(#clip1_495_40599)">
<ellipse cx="148.058" cy="29.5105" rx="1.90815" ry="1.91043" stroke="#BDB4FE" stroke-width="1.5"/>
<ellipse cx="162.429" cy="29.5105" rx="1.90815" ry="1.91043" stroke="#BDB4FE" stroke-width="1.5"/>
<ellipse cx="155.262" cy="18.3924" rx="1.90815" ry="1.91043" stroke="#BDB4FE" stroke-width="1.5"/>
<ellipse cx="155.262" cy="26.0613" rx="1.90815" ry="1.91043" stroke="#BDB4FE" stroke-width="1.5"/>
<path d="M153.306 19.5981C151.028 21.5476 149.31 24.1905 148.447 27.2198M157.232 19.5981C159.511 21.5476 161.229 24.1905 162.092 27.2198M160.475 30.7115C158.855 31.3456 157.101 31.6923 155.269 31.6923C153.438 31.6923 151.684 31.3456 150.063 30.7115" stroke="#BDB4FE" stroke-width="1.5" stroke-linecap="round" stroke-linejoin="round"/>
<path d="M155.269 20.1284L155.269 24.1507" stroke="#BDB4FE" stroke-width="1.5"/>
<path d="M153.551 26.814L149.838 28.5967" stroke="#BDB4FE" stroke-width="1.5"/>
<path d="M156.963 26.8637L160.521 28.4632" stroke="#BDB4FE" stroke-width="1.5"/>
</g>
<path d="M182.472 21.5625C182.419 21.0663 182.195 20.6799 181.801 20.4034C181.411 20.1269 180.903 19.9886 180.278 19.9886C179.839 19.9886 179.462 20.0549 179.148 20.1875C178.833 20.3201 178.593 20.5 178.426 20.7273C178.259 20.9545 178.174 21.214 178.17 21.5057C178.17 21.7481 178.225 21.9583 178.335 22.1364C178.449 22.3144 178.602 22.4659 178.795 22.5909C178.989 22.7121 179.203 22.8144 179.438 22.8977C179.672 22.9811 179.909 23.0511 180.148 23.108L181.239 23.3807C181.678 23.483 182.1 23.6212 182.506 23.7955C182.915 23.9697 183.28 24.1894 183.602 24.4545C183.928 24.7197 184.186 25.0398 184.375 25.4148C184.564 25.7898 184.659 26.2292 184.659 26.733C184.659 27.4148 184.485 28.0152 184.136 28.5341C183.788 29.0492 183.284 29.4527 182.625 29.7443C181.97 30.0322 181.176 30.1761 180.244 30.1761C179.339 30.1761 178.553 30.036 177.886 29.7557C177.223 29.4754 176.705 29.0663 176.33 28.5284C175.958 27.9905 175.758 27.3352 175.727 26.5625H177.801C177.831 26.9678 177.956 27.3049 178.176 27.5739C178.396 27.8428 178.682 28.0436 179.034 28.1761C179.39 28.3087 179.788 28.375 180.227 28.375C180.686 28.375 181.087 28.3068 181.432 28.1705C181.78 28.0303 182.053 27.8371 182.25 27.5909C182.447 27.3409 182.547 27.0492 182.551 26.7159C182.547 26.4129 182.458 26.1629 182.284 25.9659C182.11 25.7652 181.866 25.5985 181.551 25.4659C181.241 25.3295 180.877 25.2083 180.46 25.1023L179.136 24.7614C178.178 24.5152 177.42 24.142 176.864 23.642C176.311 23.1383 176.034 22.4697 176.034 21.6364C176.034 20.9508 176.22 20.3504 176.591 19.8352C176.966 19.3201 177.475 18.9205 178.119 18.6364C178.763 18.3485 179.492 18.2045 180.307 18.2045C181.133 18.2045 181.856 18.3485 182.477 18.6364C183.102 18.9205 183.593 19.3163 183.949 19.8239C184.305 20.3277 184.489 20.9072 184.5 21.5625H182.472ZM187.726 33.2727C187.446 33.2727 187.186 33.25 186.947 33.2045C186.713 33.1629 186.525 33.1136 186.385 33.0568L186.862 31.4545C187.161 31.5417 187.429 31.5833 187.663 31.5795C187.898 31.5758 188.105 31.5019 188.283 31.358C188.464 31.2178 188.618 30.983 188.743 30.6534L188.919 30.1818L185.754 21.2727H187.936L189.947 27.8636H190.038L192.055 21.2727H194.243L190.749 31.0568C190.586 31.5189 190.37 31.9148 190.101 32.2443C189.832 32.5777 189.502 32.8314 189.112 33.0057C188.726 33.1837 188.264 33.2727 187.726 33.2727ZM202.564 23.5795L200.689 23.7841C200.636 23.5947 200.543 23.4167 200.411 23.25C200.282 23.0833 200.107 22.9489 199.888 22.8466C199.668 22.7443 199.399 22.6932 199.081 22.6932C198.653 22.6932 198.293 22.786 198.001 22.9716C197.714 23.1572 197.571 23.3977 197.575 23.6932C197.571 23.947 197.664 24.1534 197.854 24.3125C198.047 24.4716 198.365 24.6023 198.808 24.7045L200.297 25.0227C201.123 25.2008 201.736 25.483 202.138 25.8693C202.543 26.2557 202.748 26.7614 202.751 27.3864C202.748 27.9356 202.587 28.4205 202.268 28.8409C201.954 29.2576 201.517 29.5833 200.956 29.8182C200.395 30.053 199.751 30.1705 199.024 30.1705C197.956 30.1705 197.096 29.947 196.445 29.5C195.793 29.0492 195.405 28.4223 195.28 27.6193L197.286 27.4261C197.376 27.8201 197.57 28.1174 197.865 28.3182C198.161 28.5189 198.545 28.6193 199.018 28.6193C199.507 28.6193 199.899 28.5189 200.195 28.3182C200.494 28.1174 200.643 27.8693 200.643 27.5739C200.643 27.3239 200.547 27.1174 200.354 26.9545C200.164 26.7917 199.869 26.6667 199.467 26.5795L197.979 26.267C197.142 26.0928 196.522 25.7992 196.121 25.3864C195.719 24.9697 195.52 24.4432 195.524 23.8068C195.52 23.2689 195.666 22.803 195.962 22.4091C196.261 22.0114 196.676 21.7045 197.206 21.4886C197.74 21.2689 198.356 21.1591 199.053 21.1591C200.075 21.1591 200.88 21.3769 201.467 21.8125C202.058 22.2481 202.424 22.8371 202.564 23.5795ZM208.805 21.2727V22.8636H203.788V21.2727H208.805ZM205.027 19.1818H207.084V27.375C207.084 27.6515 207.125 27.8636 207.209 28.0114C207.296 28.1553 207.41 28.2538 207.55 28.3068C207.69 28.3598 207.845 28.3864 208.016 28.3864C208.144 28.3864 208.262 28.3769 208.368 28.358C208.478 28.339 208.561 28.322 208.618 28.3068L208.964 29.9148C208.855 29.9527 208.697 29.9943 208.493 30.0398C208.292 30.0852 208.046 30.1117 207.754 30.1193C207.239 30.1345 206.775 30.0568 206.362 29.8864C205.949 29.7121 205.622 29.4432 205.379 29.0795C205.141 28.7159 205.023 28.2614 205.027 27.7159V19.1818ZM214.295 30.1705C213.42 30.1705 212.665 29.9886 212.028 29.625C211.396 29.2576 210.909 28.7386 210.568 28.0682C210.227 27.3939 210.057 26.6004 210.057 25.6875C210.057 24.7898 210.227 24.0019 210.568 23.3239C210.913 22.642 211.394 22.1117 212.011 21.733C212.629 21.3504 213.354 21.1591 214.188 21.1591C214.725 21.1591 215.233 21.2462 215.71 21.4205C216.191 21.5909 216.616 21.8561 216.983 22.2159C217.354 22.5758 217.646 23.0341 217.858 23.5909C218.07 24.1439 218.176 24.803 218.176 25.5682V26.1989H211.023V24.8125H216.205C216.201 24.4186 216.116 24.0682 215.949 23.7614C215.782 23.4508 215.549 23.2064 215.25 23.0284C214.955 22.8504 214.61 22.7614 214.216 22.7614C213.795 22.7614 213.426 22.8636 213.108 23.0682C212.79 23.2689 212.542 23.5341 212.364 23.8636C212.189 24.1894 212.1 24.5473 212.097 24.9375V26.1477C212.097 26.6553 212.189 27.0909 212.375 27.4545C212.561 27.8144 212.82 28.0909 213.153 28.2841C213.487 28.4735 213.877 28.5682 214.324 28.5682C214.623 28.5682 214.894 28.5265 215.136 28.4432C215.379 28.3561 215.589 28.2292 215.767 28.0625C215.945 27.8958 216.08 27.6894 216.17 27.4432L218.091 27.6591C217.97 28.1667 217.739 28.6098 217.398 28.9886C217.061 29.3636 216.629 29.6553 216.102 29.8636C215.576 30.0682 214.973 30.1705 214.295 30.1705ZM219.916 30V21.2727H221.882V22.7557H221.984C222.166 22.2557 222.467 21.8655 222.888 21.5852C223.308 21.3011 223.81 21.1591 224.393 21.1591C224.984 21.1591 225.482 21.303 225.888 21.5909C226.297 21.875 226.585 22.2633 226.751 22.7557H226.842C227.036 22.2708 227.361 21.8845 227.82 21.5966C228.282 21.3049 228.829 21.1591 229.462 21.1591C230.265 21.1591 230.92 21.4129 231.428 21.9205C231.935 22.428 232.189 23.1686 232.189 24.142V30H230.126V24.4602C230.126 23.9186 229.982 23.5227 229.695 23.2727C229.407 23.0189 229.054 22.892 228.638 22.892C228.142 22.892 227.753 23.0473 227.473 23.358C227.196 23.6648 227.058 24.0644 227.058 24.5568V30H225.041V24.375C225.041 23.9242 224.905 23.5644 224.632 23.2955C224.363 23.0265 224.011 22.892 223.575 22.892C223.28 22.892 223.011 22.9678 222.768 23.1193C222.526 23.267 222.333 23.4773 222.189 23.75C222.045 24.0189 221.973 24.3333 221.973 24.6932V30H219.916ZM241.173 23.5795L239.298 23.7841C239.245 23.5947 239.152 23.4167 239.02 23.25C238.891 23.0833 238.717 22.9489 238.497 22.8466C238.277 22.7443 238.009 22.6932 237.69 22.6932C237.262 22.6932 236.902 22.786 236.611 22.9716C236.323 23.1572 236.181 23.3977 236.185 23.6932C236.181 23.947 236.274 24.1534 236.463 24.3125C236.656 24.4716 236.974 24.6023 237.418 24.7045L238.906 25.0227C239.732 25.2008 240.346 25.483 240.747 25.8693C241.152 26.2557 241.357 26.7614 241.361 27.3864C241.357 27.9356 241.196 28.4205 240.878 28.8409C240.563 29.2576 240.126 29.5833 239.565 29.8182C239.005 30.053 238.361 30.1705 237.634 30.1705C236.565 30.1705 235.705 29.947 235.054 29.5C234.402 29.0492 234.014 28.4223 233.889 27.6193L235.895 27.4261C235.986 27.8201 236.179 28.1174 236.474 28.3182C236.77 28.5189 237.154 28.6193 237.628 28.6193C238.116 28.6193 238.509 28.5189 238.804 28.3182C239.103 28.1174 239.253 27.8693 239.253 27.5739C239.253 27.3239 239.156 27.1174 238.963 26.9545C238.774 26.7917 238.478 26.6667 238.077 26.5795L236.588 26.267C235.751 26.0928 235.132 25.7992 234.73 25.3864C234.329 24.9697 234.13 24.4432 234.134 23.8068C234.13 23.2689 234.276 22.803 234.571 22.4091C234.87 22.0114 235.285 21.7045 235.815 21.4886C236.349 21.2689 236.965 21.1591 237.662 21.1591C238.685 21.1591 239.49 21.3769 240.077 21.8125C240.668 22.2481 241.033 22.8371 241.173 23.5795Z" fill="#BDBDBD"/>
<rect x="270" width="130" height="48" rx="24" fill="#1B1F24"/>
<g clip-path="url(#clip2_495_40599)">
<ellipse cx="1.91759" cy="1.9504" rx="1.91759" ry="1.9504" transform="matrix(-1 0 0 1 307.939 16.125)" stroke="#FDB022" stroke-width="1.5" stroke-linecap="round" stroke-linejoin="round"/>
<path d="M302.266 31.1262C301.377 31.3175 300.455 31.4181 299.511 31.4181C297.144 31.4181 294.923 30.7865 293 29.68C293.538 25.4333 296.021 21.8063 299.511 19.7529C301.397 20.8629 302.99 22.4327 304.14 24.3116" stroke="#FDB022" stroke-width="1.5" stroke-linecap="round" stroke-linejoin="round"/>
<path d="M311 30.546C309.53 31.392 307.831 31.8749 306.022 31.8749C304.212 31.8749 302.513 31.392 301.043 30.5459C301.455 27.2988 303.353 24.5256 306.022 22.9556C308.69 24.5256 310.589 27.2989 311 30.546Z" stroke="#FDB022" stroke-width="1.5" stroke-linecap="round" stroke-linejoin="round"/>
</g>
<path d="M329.472 21.5625C329.419 21.0663 329.195 20.6799 328.801 20.4034C328.411 20.1269 327.903 19.9886 327.278 19.9886C326.839 19.9886 326.462 20.0549 326.148 20.1875C325.833 20.3201 325.593 20.5 325.426 20.7273C325.259 20.9545 325.174 21.214 325.17 21.5057C325.17 21.7481 325.225 21.9583 325.335 22.1364C325.449 22.3144 325.602 22.4659 325.795 22.5909C325.989 22.7121 326.203 22.8144 326.438 22.8977C326.672 22.9811 326.909 23.0511 327.148 23.108L328.239 23.3807C328.678 23.483 329.1 23.6212 329.506 23.7955C329.915 23.9697 330.28 24.1894 330.602 24.4545C330.928 24.7197 331.186 25.0398 331.375 25.4148C331.564 25.7898 331.659 26.2292 331.659 26.733C331.659 27.4148 331.485 28.0152 331.136 28.5341C330.788 29.0492 330.284 29.4527 329.625 29.7443C328.97 30.0322 328.176 30.1761 327.244 30.1761C326.339 30.1761 325.553 30.036 324.886 29.7557C324.223 29.4754 323.705 29.0663 323.33 28.5284C322.958 27.9905 322.758 27.3352 322.727 26.5625H324.801C324.831 26.9678 324.956 27.3049 325.176 27.5739C325.396 27.8428 325.682 28.0436 326.034 28.1761C326.39 28.3087 326.788 28.375 327.227 28.375C327.686 28.375 328.087 28.3068 328.432 28.1705C328.78 28.0303 329.053 27.8371 329.25 27.5909C329.447 27.3409 329.547 27.0492 329.551 26.7159C329.547 26.4129 329.458 26.1629 329.284 25.9659C329.11 25.7652 328.866 25.5985 328.551 25.4659C328.241 25.3295 327.877 25.2083 327.46 25.1023L326.136 24.7614C325.178 24.5152 324.42 24.142 323.864 23.642C323.311 23.1383 323.034 22.4697 323.034 21.6364C323.034 20.9508 323.22 20.3504 323.591 19.8352C323.966 19.3201 324.475 18.9205 325.119 18.6364C325.763 18.3485 326.492 18.2045 327.307 18.2045C328.133 18.2045 328.856 18.3485 329.477 18.6364C330.102 18.9205 330.593 19.3163 330.949 19.8239C331.305 20.3277 331.489 20.9072 331.5 21.5625H329.472ZM333.447 33.2727V21.2727H335.47V22.7159H335.589C335.696 22.5038 335.845 22.2784 336.038 22.0398C336.232 21.7973 336.493 21.5909 336.822 21.4205C337.152 21.2462 337.572 21.1591 338.084 21.1591C338.758 21.1591 339.366 21.3314 339.908 21.6761C340.453 22.017 340.885 22.5227 341.203 23.1932C341.525 23.8598 341.686 24.678 341.686 25.6477C341.686 26.6061 341.529 27.4205 341.214 28.0909C340.9 28.7614 340.472 29.2727 339.93 29.625C339.389 29.9773 338.775 30.1534 338.089 30.1534C337.589 30.1534 337.175 30.0701 336.845 29.9034C336.516 29.7367 336.25 29.536 336.05 29.3011C335.853 29.0625 335.699 28.8371 335.589 28.625H335.504V33.2727H333.447ZM335.464 25.6364C335.464 26.2008 335.544 26.6951 335.703 27.1193C335.866 27.5436 336.099 27.875 336.402 28.1136C336.709 28.3485 337.08 28.4659 337.516 28.4659C337.97 28.4659 338.351 28.3447 338.658 28.1023C338.964 27.8561 339.196 27.5208 339.351 27.0966C339.51 26.6686 339.589 26.1818 339.589 25.6364C339.589 25.0947 339.512 24.6136 339.357 24.1932C339.201 23.7727 338.97 23.4432 338.663 23.2045C338.357 22.9659 337.974 22.8466 337.516 22.8466C337.076 22.8466 336.703 22.9621 336.396 23.1932C336.089 23.4242 335.857 23.7481 335.697 24.1648C335.542 24.5814 335.464 25.072 335.464 25.6364ZM345.959 30.1761C345.406 30.1761 344.908 30.0777 344.464 29.8807C344.025 29.6799 343.677 29.3845 343.419 28.9943C343.165 28.6042 343.038 28.1231 343.038 27.5511C343.038 27.0587 343.129 26.6515 343.311 26.3295C343.493 26.0076 343.741 25.75 344.055 25.5568C344.37 25.3636 344.724 25.2178 345.118 25.1193C345.516 25.017 345.927 24.9432 346.351 24.8977C346.862 24.8447 347.277 24.7973 347.595 24.7557C347.913 24.7102 348.144 24.642 348.288 24.5511C348.436 24.4564 348.51 24.3106 348.51 24.1136V24.0795C348.51 23.6515 348.383 23.3201 348.129 23.0852C347.875 22.8504 347.51 22.733 347.033 22.733C346.529 22.733 346.129 22.8428 345.834 23.0625C345.542 23.2822 345.345 23.5417 345.243 23.8409L343.322 23.5682C343.474 23.0379 343.724 22.5947 344.072 22.2386C344.421 21.8788 344.847 21.6098 345.351 21.4318C345.855 21.25 346.411 21.1591 347.021 21.1591C347.442 21.1591 347.86 21.2083 348.277 21.3068C348.694 21.4053 349.074 21.5682 349.419 21.7955C349.764 22.0189 350.04 22.3239 350.249 22.7102C350.461 23.0966 350.567 23.5795 350.567 24.1591V30H348.589V28.8011H348.521C348.396 29.0436 348.22 29.2708 347.993 29.483C347.769 29.6913 347.487 29.8598 347.146 29.9886C346.809 30.1136 346.413 30.1761 345.959 30.1761ZM346.493 28.6648C346.906 28.6648 347.264 28.5833 347.567 28.4205C347.87 28.2538 348.103 28.0341 348.266 27.7614C348.432 27.4886 348.516 27.1913 348.516 26.8693V25.8409C348.451 25.8939 348.341 25.9432 348.186 25.9886C348.035 26.0341 347.864 26.0739 347.675 26.108C347.485 26.142 347.298 26.1723 347.112 26.1989C346.927 26.2254 346.766 26.2481 346.629 26.267C346.322 26.3087 346.048 26.3769 345.805 26.4716C345.563 26.5663 345.372 26.6989 345.232 26.8693C345.091 27.036 345.021 27.2519 345.021 27.517C345.021 27.8958 345.16 28.1818 345.436 28.375C345.713 28.5682 346.065 28.6648 346.493 28.6648ZM356.442 30.1705C355.571 30.1705 354.822 29.9792 354.197 29.5966C353.576 29.214 353.097 28.6856 352.76 28.0114C352.427 27.3333 352.26 26.553 352.26 25.6705C352.26 24.7841 352.43 24.0019 352.771 23.3239C353.112 22.642 353.593 22.1117 354.214 21.733C354.839 21.3504 355.578 21.1591 356.43 21.1591C357.139 21.1591 357.766 21.2898 358.311 21.5511C358.86 21.8087 359.298 22.1742 359.624 22.6477C359.949 23.1174 360.135 23.6667 360.18 24.2955H358.214C358.135 23.875 357.946 23.5246 357.646 23.2443C357.351 22.9602 356.955 22.8182 356.459 22.8182C356.038 22.8182 355.669 22.9318 355.351 23.1591C355.033 23.3826 354.785 23.7045 354.607 24.125C354.432 24.5455 354.345 25.0492 354.345 25.6364C354.345 26.2311 354.432 26.7424 354.607 27.1705C354.781 27.5947 355.025 27.9223 355.339 28.1534C355.658 28.3807 356.031 28.4943 356.459 28.4943C356.762 28.4943 357.033 28.4375 357.271 28.3239C357.514 28.2064 357.716 28.0379 357.879 27.8182C358.042 27.5985 358.154 27.3314 358.214 27.017H360.18C360.131 27.6345 359.949 28.1818 359.635 28.6591C359.321 29.1326 358.893 29.5038 358.351 29.7727C357.809 30.0379 357.173 30.1705 356.442 30.1705ZM365.733 30.1705C364.858 30.1705 364.102 29.9886 363.466 29.625C362.833 29.2576 362.347 28.7386 362.006 28.0682C361.665 27.3939 361.494 26.6004 361.494 25.6875C361.494 24.7898 361.665 24.0019 362.006 23.3239C362.35 22.642 362.831 22.1117 363.449 21.733C364.066 21.3504 364.792 21.1591 365.625 21.1591C366.163 21.1591 366.67 21.2462 367.148 21.4205C367.629 21.5909 368.053 21.8561 368.42 22.2159C368.792 22.5758 369.083 23.0341 369.295 23.5909C369.508 24.1439 369.614 24.803 369.614 25.5682V26.1989H362.46V24.8125H367.642C367.638 24.4186 367.553 24.0682 367.386 23.7614C367.22 23.4508 366.987 23.2064 366.688 23.0284C366.392 22.8504 366.047 22.7614 365.653 22.7614C365.233 22.7614 364.864 22.8636 364.545 23.0682C364.227 23.2689 363.979 23.5341 363.801 23.8636C363.627 24.1894 363.538 24.5473 363.534 24.9375V26.1477C363.534 26.6553 363.627 27.0909 363.812 27.4545C363.998 27.8144 364.258 28.0909 364.591 28.2841C364.924 28.4735 365.314 28.5682 365.761 28.5682C366.061 28.5682 366.331 28.5265 366.574 28.4432C366.816 28.3561 367.027 28.2292 367.205 28.0625C367.383 27.8958 367.517 27.6894 367.608 27.4432L369.528 27.6591C369.407 28.1667 369.176 28.6098 368.835 28.9886C368.498 29.3636 368.066 29.6553 367.54 29.8636C367.013 30.0682 366.411 30.1705 365.733 30.1705ZM378.251 23.5795L376.376 23.7841C376.323 23.5947 376.231 23.4167 376.098 23.25C375.969 23.0833 375.795 22.9489 375.575 22.8466C375.356 22.7443 375.087 22.6932 374.768 22.6932C374.34 22.6932 373.981 22.786 373.689 22.9716C373.401 23.1572 373.259 23.3977 373.263 23.6932C373.259 23.947 373.352 24.1534 373.541 24.3125C373.734 24.4716 374.053 24.6023 374.496 24.7045L375.984 25.0227C376.81 25.2008 377.424 25.483 377.825 25.8693C378.231 26.2557 378.435 26.7614 378.439 27.3864C378.435 27.9356 378.274 28.4205 377.956 28.8409C377.642 29.2576 377.204 29.5833 376.643 29.8182C376.083 30.053 375.439 30.1705 374.712 30.1705C373.643 30.1705 372.784 29.947 372.132 29.5C371.481 29.0492 371.092 28.4223 370.967 27.6193L372.973 27.4261C373.064 27.8201 373.257 28.1174 373.553 28.3182C373.848 28.5189 374.232 28.6193 374.706 28.6193C375.195 28.6193 375.587 28.5189 375.882 28.3182C376.181 28.1174 376.331 27.8693 376.331 27.5739C376.331 27.3239 376.234 27.1174 376.041 26.9545C375.852 26.7917 375.556 26.6667 375.155 26.5795L373.666 26.267C372.829 26.0928 372.21 25.7992 371.808 25.3864C371.407 24.9697 371.208 24.4432 371.212 23.8068C371.208 23.2689 371.354 22.803 371.649 22.4091C371.948 22.0114 372.363 21.7045 372.893 21.4886C373.428 21.2689 374.043 21.1591 374.74 21.1591C375.763 21.1591 376.568 21.3769 377.155 21.8125C377.746 22.2481 378.111 22.8371 378.251 23.5795Z" fill="#BDBDBD"/>
<defs>
<clipPath id="clip0_495_40599">
<rect x="20" y="12" width="24" height="24" rx="12" fill="white"/>
</clipPath>
<clipPath id="clip1_495_40599">
<rect x="143" y="12" width="24" height="24" rx="12" fill="white"/>
</clipPath>
<clipPath id="clip2_495_40599">
<rect x="290" y="12" width="24" height="24" rx="12" fill="white"/>
</clipPath>
</defs>
</svg>
