<svg width="355" height="310" viewBox="0 0 355 310" fill="none" xmlns="http://www.w3.org/2000/svg">
<g clip-path="url(#clip0_510_46466)">
<rect x="-292" width="647" height="102" rx="16" fill="#1B1F24"/>
<path d="M95.7045 26.3636L98.733 35.5227H98.8523L101.875 26.3636H104.193L100.091 38H97.4886L93.392 26.3636H95.7045ZM105.635 38V29.2727H107.692V38H105.635ZM106.669 28.0341C106.343 28.0341 106.063 27.9261 105.828 27.7102C105.593 27.4905 105.476 27.2273 105.476 26.9205C105.476 26.6098 105.593 26.3466 105.828 26.1307C106.063 25.911 106.343 25.8011 106.669 25.8011C106.999 25.8011 107.279 25.911 107.51 26.1307C107.745 26.3466 107.862 26.6098 107.862 26.9205C107.862 27.2273 107.745 27.4905 107.51 27.7102C107.279 27.9261 106.999 28.0341 106.669 28.0341ZM113.67 38.1705C112.795 38.1705 112.04 37.9886 111.403 37.625C110.771 37.2576 110.284 36.7386 109.943 36.0682C109.602 35.3939 109.432 34.6004 109.432 33.6875C109.432 32.7898 109.602 32.0019 109.943 31.3239C110.288 30.642 110.769 30.1117 111.386 29.733C112.004 29.3504 112.729 29.1591 113.562 29.1591C114.1 29.1591 114.608 29.2462 115.085 29.4205C115.566 29.5909 115.991 29.8561 116.358 30.2159C116.729 30.5758 117.021 31.0341 117.233 31.5909C117.445 32.1439 117.551 32.803 117.551 33.5682V34.1989H110.398V32.8125H115.58C115.576 32.4186 115.491 32.0682 115.324 31.7614C115.157 31.4508 114.924 31.2064 114.625 31.0284C114.33 30.8504 113.985 30.7614 113.591 30.7614C113.17 30.7614 112.801 30.8636 112.483 31.0682C112.165 31.2689 111.917 31.5341 111.739 31.8636C111.564 32.1894 111.475 32.5473 111.472 32.9375V34.1477C111.472 34.6553 111.564 35.0909 111.75 35.4545C111.936 35.8144 112.195 36.0909 112.528 36.2841C112.862 36.4735 113.252 36.5682 113.699 36.5682C113.998 36.5682 114.269 36.5265 114.511 36.4432C114.754 36.3561 114.964 36.2292 115.142 36.0625C115.32 35.8958 115.455 35.6894 115.545 35.4432L117.466 35.6591C117.345 36.1667 117.114 36.6098 116.773 36.9886C116.436 37.3636 116.004 37.6553 115.477 37.8636C114.951 38.0682 114.348 38.1705 113.67 38.1705ZM121.045 38L118.58 29.2727H120.676L122.21 35.4091H122.29L123.858 29.2727H125.932L127.5 35.375H127.585L129.097 29.2727H131.199L128.727 38H126.585L124.949 32.1023H124.83L123.193 38H121.045ZM136.249 38.1705C135.374 38.1705 134.618 37.9886 133.982 37.625C133.349 37.2576 132.862 36.7386 132.521 36.0682C132.18 35.3939 132.01 34.6004 132.01 33.6875C132.01 32.7898 132.18 32.0019 132.521 31.3239C132.866 30.642 133.347 30.1117 133.964 29.733C134.582 29.3504 135.307 29.1591 136.141 29.1591C136.679 29.1591 137.186 29.2462 137.663 29.4205C138.144 29.5909 138.569 29.8561 138.936 30.2159C139.307 30.5758 139.599 31.0341 139.811 31.5909C140.023 32.1439 140.129 32.803 140.129 33.5682V34.1989H132.976V32.8125H138.158C138.154 32.4186 138.069 32.0682 137.902 31.7614C137.735 31.4508 137.502 31.2064 137.203 31.0284C136.908 30.8504 136.563 30.7614 136.169 30.7614C135.749 30.7614 135.379 30.8636 135.061 31.0682C134.743 31.2689 134.495 31.5341 134.317 31.8636C134.143 32.1894 134.054 32.5473 134.05 32.9375V34.1477C134.05 34.6553 134.143 35.0909 134.328 35.4545C134.514 35.8144 134.773 36.0909 135.107 36.2841C135.44 36.4735 135.83 36.5682 136.277 36.5682C136.576 36.5682 136.847 36.5265 137.089 36.4432C137.332 36.3561 137.542 36.2292 137.72 36.0625C137.898 35.8958 138.033 35.6894 138.124 35.4432L140.044 35.6591C139.923 36.1667 139.692 36.6098 139.351 36.9886C139.014 37.3636 138.582 37.6553 138.055 37.8636C137.529 38.0682 136.927 38.1705 136.249 38.1705ZM141.869 38V29.2727H143.864V30.7273H143.955C144.114 30.2235 144.386 29.8352 144.773 29.5625C145.163 29.286 145.608 29.1477 146.108 29.1477C146.222 29.1477 146.348 29.1534 146.489 29.1648C146.633 29.1723 146.752 29.1856 146.847 29.2045V31.0966C146.759 31.0663 146.621 31.0398 146.432 31.017C146.246 30.9905 146.066 30.9773 145.892 30.9773C145.517 30.9773 145.18 31.0587 144.881 31.2216C144.585 31.3807 144.352 31.6023 144.182 31.8864C144.011 32.1705 143.926 32.4981 143.926 32.8693V38H141.869Z" fill="#BDBDBD"/>
<g clip-path="url(#clip1_510_46466)">
<path d="M171.5 29.75L176 34.25L180.5 29.75" stroke="#BDBDBD" stroke-width="1.5"/>
</g>
<rect x="204.5" y="14.5" width="126" height="35" rx="17.5" stroke="#FCFCFD"/>
<path d="M217.004 37V26.8182H220.822C221.605 26.8182 222.261 26.9541 222.791 27.2259C223.325 27.4976 223.728 27.8788 223.999 28.3693C224.274 28.8565 224.412 29.425 224.412 30.0746C224.412 30.7275 224.273 31.2943 223.994 31.7749C223.719 32.2521 223.313 32.6217 222.776 32.8835C222.239 33.142 221.58 33.2713 220.798 33.2713H218.078V31.7401H220.549C221.006 31.7401 221.381 31.6771 221.673 31.5511C221.964 31.4219 222.18 31.2346 222.319 30.9893C222.461 30.7408 222.533 30.4358 222.533 30.0746C222.533 29.7133 222.461 29.4051 222.319 29.1499C222.176 28.8913 221.959 28.6958 221.668 28.5632C221.376 28.4273 221 28.3594 220.539 28.3594H218.849V37H217.004ZM222.264 32.3864L224.785 37H222.727L220.251 32.3864H222.264ZM229.252 37.1491C228.506 37.1491 227.86 36.9851 227.313 36.657C226.766 36.3288 226.342 35.8698 226.04 35.2798C225.742 34.6899 225.593 34.0005 225.593 33.2116C225.593 32.4228 225.742 31.7318 226.04 31.1385C226.342 30.5452 226.766 30.0845 227.313 29.7564C227.86 29.4283 228.506 29.2642 229.252 29.2642C229.998 29.2642 230.644 29.4283 231.191 29.7564C231.738 30.0845 232.16 30.5452 232.458 31.1385C232.76 31.7318 232.911 32.4228 232.911 33.2116C232.911 34.0005 232.76 34.6899 232.458 35.2798C232.16 35.8698 231.738 36.3288 231.191 36.657C230.644 36.9851 229.998 37.1491 229.252 37.1491ZM229.262 35.7074C229.666 35.7074 230.004 35.5964 230.276 35.3743C230.548 35.1489 230.75 34.8473 230.882 34.4695C231.018 34.0916 231.086 33.6707 231.086 33.2067C231.086 32.7393 231.018 32.3168 230.882 31.9389C230.75 31.5578 230.548 31.2545 230.276 31.0291C230.004 30.8037 229.666 30.6911 229.262 30.6911C228.847 30.6911 228.503 30.8037 228.228 31.0291C227.956 31.2545 227.752 31.5578 227.616 31.9389C227.484 32.3168 227.417 32.7393 227.417 33.2067C227.417 33.6707 227.484 34.0916 227.616 34.4695C227.752 34.8473 227.956 35.1489 228.228 35.3743C228.503 35.5964 228.847 35.7074 229.262 35.7074ZM234.518 37V26.8182H236.318V30.6264H236.392C236.485 30.4408 236.616 30.2436 236.785 30.0348C236.954 29.8227 237.183 29.642 237.471 29.4929C237.759 29.3404 238.127 29.2642 238.575 29.2642C239.165 29.2642 239.697 29.415 240.171 29.7166C240.648 30.0149 241.026 30.4574 241.304 31.044C241.586 31.6274 241.727 32.3433 241.727 33.1918C241.727 34.0303 241.589 34.7429 241.314 35.3295C241.039 35.9162 240.664 36.3636 240.191 36.6719C239.717 36.9801 239.18 37.1342 238.58 37.1342C238.142 37.1342 237.779 37.0613 237.491 36.9155C237.203 36.7696 236.971 36.594 236.795 36.3885C236.623 36.1797 236.488 35.9825 236.392 35.7969H236.288V37H234.518ZM236.283 33.1818C236.283 33.6757 236.352 34.1082 236.492 34.4794C236.634 34.8506 236.838 35.1406 237.103 35.3494C237.372 35.5549 237.696 35.6577 238.078 35.6577C238.475 35.6577 238.808 35.5516 239.077 35.3395C239.345 35.1241 239.548 34.8307 239.683 34.4595C239.823 34.085 239.892 33.6591 239.892 33.1818C239.892 32.7079 239.824 32.2869 239.688 31.919C239.552 31.5511 239.35 31.2628 239.082 31.054C238.813 30.8452 238.479 30.7408 238.078 30.7408C237.693 30.7408 237.367 30.8419 237.098 31.044C236.83 31.2462 236.626 31.5296 236.487 31.8942C236.351 32.2588 236.283 32.688 236.283 33.1818ZM246.588 37.1491C245.842 37.1491 245.196 36.9851 244.649 36.657C244.102 36.3288 243.678 35.8698 243.376 35.2798C243.078 34.6899 242.929 34.0005 242.929 33.2116C242.929 32.4228 243.078 31.7318 243.376 31.1385C243.678 30.5452 244.102 30.0845 244.649 29.7564C245.196 29.4283 245.842 29.2642 246.588 29.2642C247.333 29.2642 247.98 29.4283 248.527 29.7564C249.074 30.0845 249.496 30.5452 249.794 31.1385C250.096 31.7318 250.247 32.4228 250.247 33.2116C250.247 34.0005 250.096 34.6899 249.794 35.2798C249.496 35.8698 249.074 36.3288 248.527 36.657C247.98 36.9851 247.333 37.1491 246.588 37.1491ZM246.598 35.7074C247.002 35.7074 247.34 35.5964 247.612 35.3743C247.884 35.1489 248.086 34.8473 248.218 34.4695C248.354 34.0916 248.422 33.6707 248.422 33.2067C248.422 32.7393 248.354 32.3168 248.218 31.9389C248.086 31.5578 247.884 31.2545 247.612 31.0291C247.34 30.8037 247.002 30.6911 246.598 30.6911C246.183 30.6911 245.839 30.8037 245.564 31.0291C245.292 31.2545 245.088 31.5578 244.952 31.9389C244.819 32.3168 244.753 32.7393 244.753 33.2067C244.753 33.6707 244.819 34.0916 244.952 34.4695C245.088 34.8473 245.292 35.1489 245.564 35.3743C245.839 35.5964 246.183 35.7074 246.598 35.7074ZM255.588 29.3636V30.7557H251.198V29.3636H255.588ZM252.281 27.5341H254.081V34.7031C254.081 34.9451 254.118 35.1307 254.191 35.2599C254.267 35.3859 254.366 35.4721 254.489 35.5185C254.611 35.5649 254.747 35.5881 254.896 35.5881C255.009 35.5881 255.112 35.5798 255.205 35.5632C255.301 35.5466 255.374 35.5317 255.423 35.5185L255.727 36.9254C255.631 36.9586 255.493 36.995 255.314 37.0348C255.138 37.0746 254.923 37.0978 254.668 37.1044C254.217 37.1177 253.811 37.0497 253.45 36.9006C253.088 36.7481 252.802 36.5128 252.59 36.1946C252.381 35.8764 252.278 35.4787 252.281 35.0014V27.5341ZM257.093 37V29.3636H258.892V37H257.093ZM257.998 28.2798C257.712 28.2798 257.467 28.1854 257.262 27.9964C257.056 27.8042 256.953 27.5739 256.953 27.3054C256.953 27.0336 257.056 26.8033 257.262 26.6143C257.467 26.4221 257.712 26.326 257.998 26.326C258.286 26.326 258.531 26.4221 258.733 26.6143C258.939 26.8033 259.042 27.0336 259.042 27.3054C259.042 27.5739 258.939 27.8042 258.733 27.9964C258.531 28.1854 258.286 28.2798 257.998 28.2798ZM264.074 37.1491C263.312 37.1491 262.657 36.9818 262.11 36.647C261.567 36.3123 261.147 35.8499 260.852 35.2599C260.561 34.6667 260.415 33.9839 260.415 33.2116C260.415 32.4361 260.564 31.7517 260.862 31.1584C261.161 30.5618 261.582 30.0978 262.125 29.7663C262.672 29.4316 263.318 29.2642 264.064 29.2642C264.684 29.2642 265.232 29.3786 265.71 29.6072C266.19 29.8326 266.573 30.1525 266.858 30.5668C267.143 30.9777 267.306 31.4583 267.345 32.0085H265.625C265.556 31.6406 265.39 31.334 265.128 31.0888C264.869 30.8402 264.523 30.7159 264.089 30.7159C263.721 30.7159 263.398 30.8153 263.119 31.0142C262.841 31.2098 262.624 31.4915 262.468 31.8594C262.316 32.2273 262.24 32.6681 262.24 33.1818C262.24 33.7022 262.316 34.1496 262.468 34.5241C262.621 34.8954 262.834 35.1821 263.11 35.3842C263.388 35.5831 263.714 35.6825 264.089 35.6825C264.354 35.6825 264.591 35.6328 264.8 35.5334C265.012 35.4306 265.189 35.2831 265.332 35.0909C265.474 34.8987 265.572 34.665 265.625 34.3899H267.345C267.302 34.9302 267.143 35.4091 266.868 35.8267C266.593 36.241 266.218 36.5658 265.744 36.8011C265.271 37.0331 264.714 37.1491 264.074 37.1491ZM274.859 31.3821L273.218 31.5611C273.172 31.3954 273.09 31.2396 272.974 31.0938C272.862 30.9479 272.709 30.8303 272.517 30.7408C272.325 30.6513 272.089 30.6065 271.811 30.6065C271.437 30.6065 271.122 30.6877 270.866 30.8501C270.615 31.0125 270.49 31.223 270.494 31.4815C270.49 31.7036 270.571 31.8842 270.737 32.0234C270.906 32.1626 271.185 32.277 271.572 32.3665L272.875 32.6449C273.598 32.8007 274.134 33.0476 274.486 33.3857C274.84 33.7237 275.019 34.1662 275.023 34.7131C275.019 35.1937 274.879 35.6179 274.6 35.9858C274.325 36.3504 273.942 36.6354 273.452 36.8409C272.961 37.0464 272.398 37.1491 271.761 37.1491C270.827 37.1491 270.074 36.9536 269.504 36.5625C268.934 36.1681 268.594 35.6196 268.485 34.9169L270.24 34.7479C270.32 35.0926 270.489 35.3527 270.747 35.5284C271.006 35.7041 271.342 35.7919 271.756 35.7919C272.184 35.7919 272.527 35.7041 272.786 35.5284C273.047 35.3527 273.178 35.1357 273.178 34.8771C273.178 34.6584 273.094 34.4777 272.925 34.3352C272.759 34.1927 272.5 34.0833 272.149 34.0071L270.847 33.7337C270.114 33.5812 269.572 33.3243 269.221 32.9631C268.87 32.5985 268.696 32.1378 268.699 31.581C268.696 31.1103 268.823 30.7027 269.082 30.358C269.344 30.0099 269.706 29.7415 270.17 29.5526C270.638 29.3603 271.176 29.2642 271.786 29.2642C272.681 29.2642 273.385 29.4548 273.899 29.8359C274.416 30.2171 274.736 30.7325 274.859 31.3821ZM285.301 30.2536H283.442C283.389 29.9486 283.291 29.6785 283.149 29.4432C283.006 29.2045 282.829 29.0024 282.617 28.8366C282.405 28.6709 282.163 28.5466 281.891 28.4638C281.623 28.3776 281.333 28.3345 281.021 28.3345C280.467 28.3345 279.977 28.4737 279.549 28.7521C279.122 29.0272 278.787 29.4316 278.545 29.9652C278.303 30.4955 278.182 31.1435 278.182 31.9091C278.182 32.688 278.303 33.3442 278.545 33.8778C278.79 34.4081 279.125 34.8092 279.549 35.081C279.977 35.3494 280.466 35.4837 281.016 35.4837C281.321 35.4837 281.606 35.4439 281.871 35.3643C282.14 35.2815 282.38 35.1605 282.592 35.0014C282.807 34.8423 282.988 34.6468 283.134 34.4148C283.283 34.1828 283.386 33.9176 283.442 33.6193L285.301 33.6293C285.232 34.1132 285.081 34.5672 284.849 34.9915C284.62 35.4157 284.32 35.7902 283.949 36.1151C283.578 36.4366 283.144 36.6884 282.647 36.8707C282.15 37.0497 281.598 37.1392 280.991 37.1392C280.096 37.1392 279.297 36.9321 278.595 36.5178C277.892 36.1035 277.339 35.5052 276.934 34.723C276.53 33.9408 276.328 33.0028 276.328 31.9091C276.328 30.812 276.532 29.8741 276.939 29.0952C277.347 28.313 277.902 27.7147 278.605 27.3004C279.307 26.8861 280.103 26.679 280.991 26.679C281.558 26.679 282.085 26.7585 282.572 26.9176C283.059 27.0767 283.493 27.3104 283.875 27.6186C284.256 27.9235 284.569 28.2981 284.814 28.7422C285.063 29.183 285.225 29.6868 285.301 30.2536ZM290.242 37.1491C289.496 37.1491 288.85 36.9851 288.303 36.657C287.756 36.3288 287.332 35.8698 287.03 35.2798C286.732 34.6899 286.583 34.0005 286.583 33.2116C286.583 32.4228 286.732 31.7318 287.03 31.1385C287.332 30.5452 287.756 30.0845 288.303 29.7564C288.85 29.4283 289.496 29.2642 290.242 29.2642C290.988 29.2642 291.634 29.4283 292.181 29.7564C292.728 30.0845 293.15 30.5452 293.449 31.1385C293.75 31.7318 293.901 32.4228 293.901 33.2116C293.901 34.0005 293.75 34.6899 293.449 35.2798C293.15 35.8698 292.728 36.3288 292.181 36.657C291.634 36.9851 290.988 37.1491 290.242 37.1491ZM290.252 35.7074C290.656 35.7074 290.994 35.5964 291.266 35.3743C291.538 35.1489 291.74 34.8473 291.873 34.4695C292.009 34.0916 292.077 33.6707 292.077 33.2067C292.077 32.7393 292.009 32.3168 291.873 31.9389C291.74 31.5578 291.538 31.2545 291.266 31.0291C290.994 30.8037 290.656 30.6911 290.252 30.6911C289.838 30.6911 289.493 30.8037 289.218 31.0291C288.946 31.2545 288.742 31.5578 288.606 31.9389C288.474 32.3168 288.407 32.7393 288.407 33.2067C288.407 33.6707 288.474 34.0916 288.606 34.4695C288.742 34.8473 288.946 35.1489 289.218 35.3743C289.493 35.5964 289.838 35.7074 290.252 35.7074Z" fill="#FCFCFD"/>
<g clip-path="url(#clip2_510_46466)">
<path d="M305.25 30.125L309 33.875L312.75 30.125" stroke="#FCFCFD" stroke-width="1.5"/>
</g>
<path d="M55.8864 81H54.4091L58.6818 69.3636H60.1364L64.4091 81H62.9318L59.4545 71.2045H59.3636L55.8864 81ZM56.4318 76.4545H62.3864V77.7045H56.4318V76.4545ZM67.3807 69.3636V81H66.0398V69.3636H67.3807ZM71.1776 69.3636V81H69.8366V69.3636H71.1776ZM78.1335 81V72.2727H79.429V73.6364H79.5426C79.7244 73.1705 80.018 72.8087 80.4233 72.5511C80.8286 72.2898 81.3153 72.1591 81.8835 72.1591C82.4593 72.1591 82.9384 72.2898 83.321 72.5511C83.7074 72.8087 84.0085 73.1705 84.2244 73.6364H84.3153C84.5388 73.1856 84.8741 72.8277 85.321 72.5625C85.768 72.2936 86.304 72.1591 86.929 72.1591C87.7093 72.1591 88.3475 72.4034 88.8438 72.892C89.34 73.3769 89.5881 74.1326 89.5881 75.1591V81H88.2472V75.1591C88.2472 74.5152 88.071 74.0549 87.7188 73.7784C87.3665 73.5019 86.9517 73.3636 86.4744 73.3636C85.8608 73.3636 85.3854 73.5492 85.0483 73.9205C84.7112 74.2879 84.5426 74.7538 84.5426 75.3182V81H83.179V75.0227C83.179 74.5265 83.018 74.1269 82.696 73.8239C82.3741 73.517 81.9593 73.3636 81.4517 73.3636C81.1032 73.3636 80.7775 73.4564 80.4744 73.642C80.1752 73.8277 79.9328 74.0852 79.7472 74.4148C79.5653 74.7405 79.4744 75.1174 79.4744 75.5455V81H78.1335ZM95.6989 81.1818C94.858 81.1818 94.1326 80.9962 93.5227 80.625C92.9167 80.25 92.4489 79.7273 92.1193 79.0568C91.7936 78.3826 91.6307 77.5985 91.6307 76.7045C91.6307 75.8106 91.7936 75.0227 92.1193 74.3409C92.4489 73.6553 92.9072 73.1212 93.4943 72.7386C94.0852 72.3523 94.7746 72.1591 95.5625 72.1591C96.017 72.1591 96.4659 72.2348 96.9091 72.3864C97.3523 72.5379 97.7557 72.7841 98.1193 73.125C98.483 73.4621 98.7727 73.9091 98.9886 74.4659C99.2045 75.0227 99.3125 75.7083 99.3125 76.5227V77.0909H92.5852V75.9318H97.9489C97.9489 75.4394 97.8504 75 97.6534 74.6136C97.4602 74.2273 97.1837 73.9223 96.8239 73.6989C96.4678 73.4754 96.0473 73.3636 95.5625 73.3636C95.0284 73.3636 94.5663 73.4962 94.1761 73.7614C93.7898 74.0227 93.4924 74.3636 93.2841 74.7841C93.0758 75.2045 92.9716 75.6553 92.9716 76.1364V76.9091C92.9716 77.5682 93.0852 78.1269 93.3125 78.5852C93.5436 79.0398 93.8636 79.3864 94.2727 79.625C94.6818 79.8598 95.1572 79.9773 95.6989 79.9773C96.0511 79.9773 96.3693 79.928 96.6534 79.8295C96.9413 79.7273 97.1894 79.5758 97.3977 79.375C97.6061 79.1705 97.767 78.9167 97.8807 78.6136L99.1761 78.9773C99.0398 79.4167 98.8106 79.803 98.4886 80.1364C98.1667 80.4659 97.7689 80.7235 97.2955 80.9091C96.822 81.0909 96.2898 81.1818 95.6989 81.1818ZM101.352 81V72.2727H102.648V73.6364H102.761C102.943 73.1705 103.237 72.8087 103.642 72.5511C104.047 72.2898 104.534 72.1591 105.102 72.1591C105.678 72.1591 106.157 72.2898 106.54 72.5511C106.926 72.8087 107.227 73.1705 107.443 73.6364H107.534C107.758 73.1856 108.093 72.8277 108.54 72.5625C108.987 72.2936 109.523 72.1591 110.148 72.1591C110.928 72.1591 111.566 72.4034 112.062 72.892C112.559 73.3769 112.807 74.1326 112.807 75.1591V81H111.466V75.1591C111.466 74.5152 111.29 74.0549 110.938 73.7784C110.585 73.5019 110.17 73.3636 109.693 73.3636C109.08 73.3636 108.604 73.5492 108.267 73.9205C107.93 74.2879 107.761 74.7538 107.761 75.3182V81H106.398V75.0227C106.398 74.5265 106.237 74.1269 105.915 73.8239C105.593 73.517 105.178 73.3636 104.67 73.3636C104.322 73.3636 103.996 73.4564 103.693 73.642C103.394 73.8277 103.152 74.0852 102.966 74.4148C102.784 74.7405 102.693 75.1174 102.693 75.5455V81H101.352ZM115.44 81V69.3636H116.781V73.6591H116.895C116.993 73.5076 117.13 73.3144 117.304 73.0795C117.482 72.8409 117.736 72.6288 118.065 72.4432C118.399 72.2538 118.849 72.1591 119.418 72.1591C120.152 72.1591 120.8 72.3428 121.361 72.7102C121.921 73.0777 122.359 73.5985 122.673 74.2727C122.988 74.947 123.145 75.7424 123.145 76.6591C123.145 77.5833 122.988 78.3845 122.673 79.0625C122.359 79.7367 121.923 80.2595 121.366 80.6307C120.81 80.9981 120.168 81.1818 119.44 81.1818C118.88 81.1818 118.431 81.089 118.094 80.9034C117.757 80.714 117.497 80.5 117.315 80.2614C117.134 80.0189 116.993 79.8182 116.895 79.6591H116.736V81H115.44ZM116.759 76.6364C116.759 77.2955 116.855 77.8769 117.048 78.3807C117.241 78.8807 117.524 79.2727 117.895 79.5568C118.266 79.8371 118.721 79.9773 119.259 79.9773C119.819 79.9773 120.287 79.8295 120.662 79.5341C121.041 79.2348 121.325 78.8333 121.514 78.3295C121.707 77.822 121.804 77.2576 121.804 76.6364C121.804 76.0227 121.709 75.4697 121.52 74.9773C121.334 74.4811 121.052 74.089 120.673 73.8011C120.298 73.5095 119.827 73.3636 119.259 73.3636C118.713 73.3636 118.255 73.5019 117.884 73.7784C117.512 74.0511 117.232 74.4337 117.043 74.9261C116.853 75.4148 116.759 75.9848 116.759 76.6364ZM128.855 81.1818C128.014 81.1818 127.289 80.9962 126.679 80.625C126.073 80.25 125.605 79.7273 125.276 79.0568C124.95 78.3826 124.787 77.5985 124.787 76.7045C124.787 75.8106 124.95 75.0227 125.276 74.3409C125.605 73.6553 126.063 73.1212 126.651 72.7386C127.241 72.3523 127.931 72.1591 128.719 72.1591C129.173 72.1591 129.622 72.2348 130.065 72.3864C130.509 72.5379 130.912 72.7841 131.276 73.125C131.639 73.4621 131.929 73.9091 132.145 74.4659C132.361 75.0227 132.469 75.7083 132.469 76.5227V77.0909H125.741V75.9318H131.105C131.105 75.4394 131.007 75 130.81 74.6136C130.616 74.2273 130.34 73.9223 129.98 73.6989C129.624 73.4754 129.204 73.3636 128.719 73.3636C128.185 73.3636 127.723 73.4962 127.332 73.7614C126.946 74.0227 126.649 74.3636 126.44 74.7841C126.232 75.2045 126.128 75.6553 126.128 76.1364V76.9091C126.128 77.5682 126.241 78.1269 126.469 78.5852C126.7 79.0398 127.02 79.3864 127.429 79.625C127.838 79.8598 128.313 79.9773 128.855 79.9773C129.207 79.9773 129.526 79.928 129.81 79.8295C130.098 79.7273 130.346 79.5758 130.554 79.375C130.762 79.1705 130.923 78.9167 131.037 78.6136L132.332 78.9773C132.196 79.4167 131.967 79.803 131.645 80.1364C131.323 80.4659 130.925 80.7235 130.452 80.9091C129.978 81.0909 129.446 81.1818 128.855 81.1818ZM134.509 81V72.2727H135.804V73.5909H135.895C136.054 73.1591 136.342 72.8087 136.759 72.5398C137.175 72.2708 137.645 72.1364 138.168 72.1364C138.266 72.1364 138.389 72.1383 138.537 72.142C138.685 72.1458 138.796 72.1515 138.872 72.1591V73.5227C138.827 73.5114 138.723 73.4943 138.56 73.4716C138.401 73.4451 138.232 73.4318 138.054 73.4318C137.63 73.4318 137.251 73.5208 136.918 73.6989C136.588 73.8731 136.327 74.1155 136.134 74.4261C135.944 74.733 135.849 75.0833 135.849 75.4773V81H134.509ZM146.643 74.2273L145.439 74.5682C145.363 74.3674 145.251 74.1723 145.104 73.983C144.96 73.7898 144.763 73.6307 144.513 73.5057C144.263 73.3807 143.943 73.3182 143.553 73.3182C143.018 73.3182 142.573 73.4413 142.217 73.6875C141.865 73.9299 141.689 74.2386 141.689 74.6136C141.689 74.947 141.81 75.2102 142.053 75.4034C142.295 75.5966 142.674 75.7576 143.189 75.8864L144.484 76.2045C145.265 76.3939 145.846 76.6837 146.229 77.0739C146.611 77.4602 146.803 77.9583 146.803 78.5682C146.803 79.0682 146.659 79.5152 146.371 79.9091C146.087 80.303 145.689 80.6136 145.178 80.8409C144.666 81.0682 144.071 81.1818 143.393 81.1818C142.503 81.1818 141.767 80.9886 141.183 80.6023C140.6 80.2159 140.231 79.6515 140.075 78.9091L141.348 78.5909C141.469 79.0606 141.698 79.4129 142.036 79.6477C142.376 79.8826 142.821 80 143.371 80C143.996 80 144.492 79.8674 144.859 79.6023C145.231 79.3333 145.416 79.0114 145.416 78.6364C145.416 78.3333 145.31 78.0795 145.098 77.875C144.886 77.6667 144.56 77.5114 144.121 77.4091L142.666 77.0682C141.867 76.8788 141.28 76.5852 140.905 76.1875C140.534 75.786 140.348 75.2841 140.348 74.6818C140.348 74.1894 140.486 73.7538 140.763 73.375C141.043 72.9962 141.424 72.6989 141.905 72.483C142.39 72.267 142.939 72.1591 143.553 72.1591C144.416 72.1591 145.094 72.3485 145.587 72.7273C146.083 73.1061 146.435 73.6061 146.643 74.2273ZM156.866 81.1818C156.079 81.1818 155.387 80.9943 154.793 80.6193C154.202 80.2443 153.74 79.7197 153.406 79.0455C153.077 78.3712 152.912 77.5833 152.912 76.6818C152.912 75.7727 153.077 74.9792 153.406 74.3011C153.74 73.6231 154.202 73.0966 154.793 72.7216C155.387 72.3466 156.079 72.1591 156.866 72.1591C157.654 72.1591 158.344 72.3466 158.935 72.7216C159.529 73.0966 159.991 73.6231 160.321 74.3011C160.654 74.9792 160.821 75.7727 160.821 76.6818C160.821 77.5833 160.654 78.3712 160.321 79.0455C159.991 79.7197 159.529 80.2443 158.935 80.6193C158.344 80.9943 157.654 81.1818 156.866 81.1818ZM156.866 79.9773C157.465 79.9773 157.957 79.8239 158.344 79.517C158.73 79.2102 159.016 78.8068 159.202 78.3068C159.387 77.8068 159.48 77.2652 159.48 76.6818C159.48 76.0985 159.387 75.5549 159.202 75.0511C159.016 74.5473 158.73 74.1402 158.344 73.8295C157.957 73.5189 157.465 73.3636 156.866 73.3636C156.268 73.3636 155.776 73.5189 155.389 73.8295C155.003 74.1402 154.717 74.5473 154.531 75.0511C154.346 75.5549 154.253 76.0985 154.253 76.6818C154.253 77.2652 154.346 77.8068 154.531 78.3068C154.717 78.8068 155.003 79.2102 155.389 79.517C155.776 79.8239 156.268 79.9773 156.866 79.9773ZM166.754 72.2727V73.4091H162.05V72.2727H166.754ZM163.459 81V71.0682C163.459 70.5682 163.576 70.1515 163.811 69.8182C164.046 69.4848 164.351 69.2348 164.726 69.0682C165.101 68.9015 165.497 68.8182 165.913 68.8182C166.243 68.8182 166.512 68.8447 166.72 68.8977C166.929 68.9508 167.084 69 167.186 69.0455L166.8 70.2045C166.732 70.1818 166.637 70.1534 166.516 70.1193C166.398 70.0852 166.243 70.0682 166.05 70.0682C165.607 70.0682 165.286 70.1799 165.089 70.4034C164.896 70.6269 164.8 70.9545 164.8 71.3864V81H163.459ZM173.315 81V69.3636H177.247C178.156 69.3636 178.902 69.5189 179.486 69.8295C180.069 70.1364 180.501 70.5587 180.781 71.0966C181.062 71.6345 181.202 72.2462 181.202 72.9318C181.202 73.6174 181.062 74.2254 180.781 74.7557C180.501 75.286 180.071 75.7027 179.491 76.0057C178.912 76.3049 178.171 76.4545 177.27 76.4545H174.088V75.1818H177.224C177.846 75.1818 178.346 75.0909 178.724 74.9091C179.107 74.7273 179.384 74.4697 179.554 74.1364C179.728 73.7992 179.815 73.3977 179.815 72.9318C179.815 72.4659 179.728 72.0587 179.554 71.7102C179.38 71.3617 179.101 71.0928 178.719 70.9034C178.336 70.7102 177.83 70.6136 177.202 70.6136H174.724V81H173.315ZM178.793 75.7727L181.656 81H180.02L177.202 75.7727H178.793ZM186.82 81.1818C186.032 81.1818 185.34 80.9943 184.746 80.6193C184.155 80.2443 183.693 79.7197 183.359 79.0455C183.03 78.3712 182.865 77.5833 182.865 76.6818C182.865 75.7727 183.03 74.9792 183.359 74.3011C183.693 73.6231 184.155 73.0966 184.746 72.7216C185.34 72.3466 186.032 72.1591 186.82 72.1591C187.607 72.1591 188.297 72.3466 188.888 72.7216C189.482 73.0966 189.945 73.6231 190.274 74.3011C190.607 74.9792 190.774 75.7727 190.774 76.6818C190.774 77.5833 190.607 78.3712 190.274 79.0455C189.945 79.7197 189.482 80.2443 188.888 80.6193C188.297 80.9943 187.607 81.1818 186.82 81.1818ZM186.82 79.9773C187.418 79.9773 187.911 79.8239 188.297 79.517C188.683 79.2102 188.969 78.8068 189.155 78.3068C189.34 77.8068 189.433 77.2652 189.433 76.6818C189.433 76.0985 189.34 75.5549 189.155 75.0511C188.969 74.5473 188.683 74.1402 188.297 73.8295C187.911 73.5189 187.418 73.3636 186.82 73.3636C186.221 73.3636 185.729 73.5189 185.342 73.8295C184.956 74.1402 184.67 74.5473 184.484 75.0511C184.299 75.5549 184.206 76.0985 184.206 76.6818C184.206 77.2652 184.299 77.8068 184.484 78.3068C184.67 78.8068 184.956 79.2102 185.342 79.517C185.729 79.8239 186.221 79.9773 186.82 79.9773ZM193.003 81V69.3636H194.344V73.6591H194.457C194.556 73.5076 194.692 73.3144 194.866 73.0795C195.045 72.8409 195.298 72.6288 195.628 72.4432C195.961 72.2538 196.412 72.1591 196.98 72.1591C197.715 72.1591 198.363 72.3428 198.923 72.7102C199.484 73.0777 199.921 73.5985 200.236 74.2727C200.55 74.947 200.707 75.7424 200.707 76.6591C200.707 77.5833 200.55 78.3845 200.236 79.0625C199.921 79.7367 199.486 80.2595 198.929 80.6307C198.372 80.9981 197.73 81.1818 197.003 81.1818C196.442 81.1818 195.993 81.089 195.656 80.9034C195.319 80.714 195.06 80.5 194.878 80.2614C194.696 80.0189 194.556 79.8182 194.457 79.6591H194.298V81H193.003ZM194.321 76.6364C194.321 77.2955 194.418 77.8769 194.611 78.3807C194.804 78.8807 195.086 79.2727 195.457 79.5568C195.829 79.8371 196.283 79.9773 196.821 79.9773C197.382 79.9773 197.849 79.8295 198.224 79.5341C198.603 79.2348 198.887 78.8333 199.077 78.3295C199.27 77.822 199.366 77.2576 199.366 76.6364C199.366 76.0227 199.272 75.4697 199.082 74.9773C198.897 74.4811 198.615 74.089 198.236 73.8011C197.861 73.5095 197.389 73.3636 196.821 73.3636C196.276 73.3636 195.817 73.5019 195.446 73.7784C195.075 74.0511 194.795 74.4337 194.605 74.9261C194.416 75.4148 194.321 75.9848 194.321 76.6364ZM206.304 81.1818C205.516 81.1818 204.825 80.9943 204.23 80.6193C203.639 80.2443 203.177 79.7197 202.844 79.0455C202.514 78.3712 202.349 77.5833 202.349 76.6818C202.349 75.7727 202.514 74.9792 202.844 74.3011C203.177 73.6231 203.639 73.0966 204.23 72.7216C204.825 72.3466 205.516 72.1591 206.304 72.1591C207.092 72.1591 207.781 72.3466 208.372 72.7216C208.967 73.0966 209.429 73.6231 209.759 74.3011C210.092 74.9792 210.259 75.7727 210.259 76.6818C210.259 77.5833 210.092 78.3712 209.759 79.0455C209.429 79.7197 208.967 80.2443 208.372 80.6193C207.781 80.9943 207.092 81.1818 206.304 81.1818ZM206.304 79.9773C206.902 79.9773 207.395 79.8239 207.781 79.517C208.168 79.2102 208.454 78.8068 208.639 78.3068C208.825 77.8068 208.918 77.2652 208.918 76.6818C208.918 76.0985 208.825 75.5549 208.639 75.0511C208.454 74.5473 208.168 74.1402 207.781 73.8295C207.395 73.5189 206.902 73.3636 206.304 73.3636C205.705 73.3636 205.213 73.5189 204.827 73.8295C204.44 74.1402 204.154 74.5473 203.969 75.0511C203.783 75.5549 203.69 76.0985 203.69 76.6818C203.69 77.2652 203.783 77.8068 203.969 78.3068C204.154 78.8068 204.44 79.2102 204.827 79.517C205.213 79.8239 205.705 79.9773 206.304 79.9773ZM216.101 72.2727V73.4091H211.578V72.2727H216.101ZM212.896 70.1818H214.237V78.5C214.237 78.8788 214.292 79.1629 214.402 79.3523C214.516 79.5379 214.66 79.6629 214.834 79.7273C215.012 79.7879 215.199 79.8182 215.396 79.8182C215.544 79.8182 215.665 79.8106 215.76 79.7955C215.855 79.7765 215.93 79.7614 215.987 79.75L216.26 80.9545C216.169 80.9886 216.042 81.0227 215.879 81.0568C215.716 81.0947 215.51 81.1136 215.26 81.1136C214.881 81.1136 214.51 81.0322 214.146 80.8693C213.786 80.7064 213.487 80.4583 213.249 80.125C213.014 79.7917 212.896 79.3712 212.896 78.8636V70.1818ZM218.118 81V72.2727H219.459V81H218.118ZM218.8 70.8182C218.538 70.8182 218.313 70.7292 218.124 70.5511C217.938 70.3731 217.845 70.1591 217.845 69.9091C217.845 69.6591 217.938 69.4451 218.124 69.267C218.313 69.089 218.538 69 218.8 69C219.061 69 219.285 69.089 219.47 69.267C219.66 69.4451 219.754 69.6591 219.754 69.9091C219.754 70.1591 219.66 70.3731 219.47 70.5511C219.285 70.7292 219.061 70.8182 218.8 70.8182ZM225.46 81.1818C224.642 81.1818 223.938 80.9886 223.347 80.6023C222.756 80.2159 222.301 79.6837 221.983 79.0057C221.665 78.3277 221.506 77.553 221.506 76.6818C221.506 75.7955 221.669 75.0133 221.994 74.3352C222.324 73.6534 222.782 73.1212 223.369 72.7386C223.96 72.3523 224.65 72.1591 225.438 72.1591C226.051 72.1591 226.604 72.2727 227.097 72.5C227.589 72.7273 227.992 73.0455 228.307 73.4545C228.621 73.8636 228.816 74.3409 228.892 74.8864H227.551C227.449 74.4886 227.222 74.1364 226.869 73.8295C226.521 73.5189 226.051 73.3636 225.46 73.3636C224.938 73.3636 224.479 73.5 224.085 73.7727C223.695 74.0417 223.39 74.4223 223.17 74.9148C222.955 75.4034 222.847 75.9773 222.847 76.6364C222.847 77.3106 222.953 77.8977 223.165 78.3977C223.381 78.8977 223.684 79.286 224.074 79.5625C224.468 79.839 224.93 79.9773 225.46 79.9773C225.809 79.9773 226.125 79.9167 226.409 79.7955C226.693 79.6742 226.934 79.5 227.131 79.2727C227.328 79.0455 227.468 78.7727 227.551 78.4545H228.892C228.816 78.9697 228.629 79.4337 228.33 79.8466C228.034 80.2557 227.642 80.5814 227.153 80.8239C226.669 81.0625 226.104 81.1818 225.46 81.1818ZM237.034 74.2273L235.83 74.5682C235.754 74.3674 235.642 74.1723 235.494 73.983C235.35 73.7898 235.153 73.6307 234.903 73.5057C234.653 73.3807 234.333 73.3182 233.943 73.3182C233.409 73.3182 232.964 73.4413 232.608 73.6875C232.256 73.9299 232.08 74.2386 232.08 74.6136C232.08 74.947 232.201 75.2102 232.443 75.4034C232.686 75.5966 233.064 75.7576 233.58 75.8864L234.875 76.2045C235.655 76.3939 236.237 76.6837 236.619 77.0739C237.002 77.4602 237.193 77.9583 237.193 78.5682C237.193 79.0682 237.049 79.5152 236.761 79.9091C236.477 80.303 236.08 80.6136 235.568 80.8409C235.057 81.0682 234.462 81.1818 233.784 81.1818C232.894 81.1818 232.157 80.9886 231.574 80.6023C230.991 80.2159 230.621 79.6515 230.466 78.9091L231.739 78.5909C231.86 79.0606 232.089 79.4129 232.426 79.6477C232.767 79.8826 233.212 80 233.761 80C234.386 80 234.883 79.8674 235.25 79.6023C235.621 79.3333 235.807 79.0114 235.807 78.6364C235.807 78.3333 235.701 78.0795 235.489 77.875C235.277 77.6667 234.951 77.5114 234.511 77.4091L233.057 77.0682C232.258 76.8788 231.67 76.5852 231.295 76.1875C230.924 75.786 230.739 75.2841 230.739 74.6818C230.739 74.1894 230.877 73.7538 231.153 73.375C231.434 72.9962 231.814 72.6989 232.295 72.483C232.78 72.267 233.33 72.1591 233.943 72.1591C234.807 72.1591 235.485 72.3485 235.977 72.7273C236.473 73.1061 236.826 73.6061 237.034 74.2273ZM248.757 73H247.348C247.265 72.5947 247.119 72.2386 246.911 71.9318C246.706 71.625 246.456 71.3674 246.161 71.1591C245.869 70.947 245.545 70.7879 245.189 70.6818C244.833 70.5758 244.462 70.5227 244.075 70.5227C243.371 70.5227 242.732 70.7008 242.161 71.0568C241.592 71.4129 241.14 71.9375 240.803 72.6307C240.469 73.3239 240.303 74.1742 240.303 75.1818C240.303 76.1894 240.469 77.0398 240.803 77.733C241.14 78.4261 241.592 78.9508 242.161 79.3068C242.732 79.6629 243.371 79.8409 244.075 79.8409C244.462 79.8409 244.833 79.7879 245.189 79.6818C245.545 79.5758 245.869 79.4186 246.161 79.2102C246.456 78.9981 246.706 78.7386 246.911 78.4318C247.119 78.1212 247.265 77.7652 247.348 77.3636H248.757C248.651 77.9583 248.458 78.4905 248.178 78.9602C247.897 79.4299 247.549 79.8295 247.132 80.1591C246.715 80.4848 246.248 80.733 245.729 80.9034C245.214 81.0739 244.662 81.1591 244.075 81.1591C243.083 81.1591 242.2 80.9167 241.428 80.4318C240.655 79.947 240.047 79.2576 239.604 78.3636C239.161 77.4697 238.939 76.4091 238.939 75.1818C238.939 73.9545 239.161 72.8939 239.604 72C240.047 71.1061 240.655 70.4167 241.428 69.9318C242.2 69.447 243.083 69.2045 244.075 69.2045C244.662 69.2045 245.214 69.2898 245.729 69.4602C246.248 69.6307 246.715 69.8807 247.132 70.2102C247.549 70.536 247.897 70.9337 248.178 71.4034C248.458 71.8693 248.651 72.4015 248.757 73ZM254.398 81.1818C253.61 81.1818 252.919 80.9943 252.324 80.6193C251.733 80.2443 251.271 79.7197 250.938 79.0455C250.608 78.3712 250.443 77.5833 250.443 76.6818C250.443 75.7727 250.608 74.9792 250.938 74.3011C251.271 73.6231 251.733 73.0966 252.324 72.7216C252.919 72.3466 253.61 72.1591 254.398 72.1591C255.186 72.1591 255.875 72.3466 256.466 72.7216C257.061 73.0966 257.523 73.6231 257.852 74.3011C258.186 74.9792 258.352 75.7727 258.352 76.6818C258.352 77.5833 258.186 78.3712 257.852 79.0455C257.523 79.7197 257.061 80.2443 256.466 80.6193C255.875 80.9943 255.186 81.1818 254.398 81.1818ZM254.398 79.9773C254.996 79.9773 255.489 79.8239 255.875 79.517C256.261 79.2102 256.547 78.8068 256.733 78.3068C256.919 77.8068 257.011 77.2652 257.011 76.6818C257.011 76.0985 256.919 75.5549 256.733 75.0511C256.547 74.5473 256.261 74.1402 255.875 73.8295C255.489 73.5189 254.996 73.3636 254.398 73.3636C253.799 73.3636 253.307 73.5189 252.92 73.8295C252.534 74.1402 252.248 74.5473 252.062 75.0511C251.877 75.5549 251.784 76.0985 251.784 76.6818C251.784 77.2652 251.877 77.8068 252.062 78.3068C252.248 78.8068 252.534 79.2102 252.92 79.517C253.307 79.8239 253.799 79.9773 254.398 79.9773ZM268.445 81.1818C267.626 81.1818 266.922 80.9886 266.331 80.6023C265.74 80.2159 265.286 79.6837 264.967 79.0057C264.649 78.3277 264.49 77.553 264.49 76.6818C264.49 75.7955 264.653 75.0133 264.979 74.3352C265.308 73.6534 265.767 73.1212 266.354 72.7386C266.945 72.3523 267.634 72.1591 268.422 72.1591C269.036 72.1591 269.589 72.2727 270.081 72.5C270.573 72.7273 270.977 73.0455 271.291 73.4545C271.606 73.8636 271.801 74.3409 271.876 74.8864H270.536C270.433 74.4886 270.206 74.1364 269.854 73.8295C269.505 73.5189 269.036 73.3636 268.445 73.3636C267.922 73.3636 267.464 73.5 267.07 73.7727C266.679 74.0417 266.375 74.4223 266.155 74.9148C265.939 75.4034 265.831 75.9773 265.831 76.6364C265.831 77.3106 265.937 77.8977 266.149 78.3977C266.365 78.8977 266.668 79.286 267.058 79.5625C267.452 79.839 267.914 79.9773 268.445 79.9773C268.793 79.9773 269.109 79.9167 269.393 79.7955C269.678 79.6742 269.918 79.5 270.115 79.2727C270.312 79.0455 270.452 78.7727 270.536 78.4545H271.876C271.801 78.9697 271.613 79.4337 271.314 79.8466C271.018 80.2557 270.626 80.5814 270.138 80.8239C269.653 81.0625 269.089 81.1818 268.445 81.1818ZM276.405 81.2045C275.852 81.2045 275.35 81.1004 274.899 80.892C274.448 80.6799 274.09 80.375 273.825 79.9773C273.56 79.5758 273.428 79.0909 273.428 78.5227C273.428 78.0227 273.526 77.6174 273.723 77.3068C273.92 76.9924 274.183 76.7462 274.513 76.5682C274.842 76.3902 275.206 76.2576 275.604 76.1705C276.005 76.0795 276.409 76.0076 276.814 75.9545C277.344 75.8864 277.774 75.8352 278.104 75.8011C278.437 75.7633 278.679 75.7008 278.831 75.6136C278.986 75.5265 279.064 75.375 279.064 75.1591V75.1136C279.064 74.553 278.911 74.1174 278.604 73.8068C278.301 73.4962 277.84 73.3409 277.223 73.3409C276.583 73.3409 276.081 73.4811 275.717 73.7614C275.354 74.0417 275.098 74.3409 274.95 74.6591L273.678 74.2045C273.905 73.6742 274.208 73.2614 274.587 72.9659C274.969 72.6667 275.386 72.4583 275.837 72.3409C276.291 72.2197 276.738 72.1591 277.178 72.1591C277.458 72.1591 277.78 72.1932 278.143 72.2614C278.511 72.3258 278.865 72.4602 279.206 72.6648C279.551 72.8693 279.837 73.178 280.064 73.5909C280.291 74.0038 280.405 74.5568 280.405 75.25V81H279.064V79.8182H278.996C278.905 80.0076 278.753 80.2102 278.541 80.4261C278.329 80.642 278.047 80.8258 277.695 80.9773C277.342 81.1288 276.912 81.2045 276.405 81.2045ZM276.609 80C277.14 80 277.587 79.8958 277.95 79.6875C278.318 79.4792 278.594 79.2102 278.78 78.8807C278.969 78.5511 279.064 78.2045 279.064 77.8409V76.6136C279.007 76.6818 278.882 76.7443 278.689 76.8011C278.5 76.8542 278.28 76.9015 278.03 76.9432C277.784 76.9811 277.543 77.0152 277.308 77.0455C277.077 77.072 276.89 77.0947 276.746 77.1136C276.397 77.1591 276.071 77.233 275.768 77.3352C275.469 77.4337 275.227 77.5833 275.041 77.7841C274.859 77.9811 274.768 78.25 274.768 78.5909C274.768 79.0568 274.941 79.4091 275.286 79.6477C275.634 79.8826 276.075 80 276.609 80ZM284.193 75.75V81H282.852V72.2727H284.148V73.6364H284.261C284.466 73.1932 284.777 72.8371 285.193 72.5682C285.61 72.2955 286.148 72.1591 286.807 72.1591C287.398 72.1591 287.915 72.2803 288.358 72.5227C288.801 72.7614 289.146 73.125 289.392 73.6136C289.638 74.0985 289.761 74.7121 289.761 75.4545V81H288.42V75.5455C288.42 74.8598 288.242 74.3258 287.886 73.9432C287.53 73.5568 287.042 73.3636 286.42 73.3636C285.992 73.3636 285.61 73.4564 285.273 73.642C284.939 73.8277 284.676 74.0985 284.483 74.4545C284.29 74.8106 284.193 75.2424 284.193 75.75ZM303.848 72.2727L300.621 81H299.257L296.03 72.2727H297.484L299.893 79.2273H299.984L302.393 72.2727H303.848ZM305.618 81V72.2727H306.959V81H305.618ZM306.3 70.8182C306.038 70.8182 305.813 70.7292 305.624 70.5511C305.438 70.3731 305.345 70.1591 305.345 69.9091C305.345 69.6591 305.438 69.4451 305.624 69.267C305.813 69.089 306.038 69 306.3 69C306.561 69 306.785 69.089 306.97 69.267C307.16 69.4451 307.254 69.6591 307.254 69.9091C307.254 70.1591 307.16 70.3731 306.97 70.5511C306.785 70.7292 306.561 70.8182 306.3 70.8182ZM313.074 81.1818C312.233 81.1818 311.508 80.9962 310.898 80.625C310.292 80.25 309.824 79.7273 309.494 79.0568C309.169 78.3826 309.006 77.5985 309.006 76.7045C309.006 75.8106 309.169 75.0227 309.494 74.3409C309.824 73.6553 310.282 73.1212 310.869 72.7386C311.46 72.3523 312.15 72.1591 312.938 72.1591C313.392 72.1591 313.841 72.2348 314.284 72.3864C314.727 72.5379 315.131 72.7841 315.494 73.125C315.858 73.4621 316.148 73.9091 316.364 74.4659C316.58 75.0227 316.688 75.7083 316.688 76.5227V77.0909H309.96V75.9318H315.324C315.324 75.4394 315.225 75 315.028 74.6136C314.835 74.2273 314.559 73.9223 314.199 73.6989C313.843 73.4754 313.422 73.3636 312.938 73.3636C312.403 73.3636 311.941 73.4962 311.551 73.7614C311.165 74.0227 310.867 74.3636 310.659 74.7841C310.451 75.2045 310.347 75.6553 310.347 76.1364V76.9091C310.347 77.5682 310.46 78.1269 310.688 78.5852C310.919 79.0398 311.239 79.3864 311.648 79.625C312.057 79.8598 312.532 79.9773 313.074 79.9773C313.426 79.9773 313.744 79.928 314.028 79.8295C314.316 79.7273 314.564 79.5758 314.773 79.375C314.981 79.1705 315.142 78.9167 315.256 78.6136L316.551 78.9773C316.415 79.4167 316.186 79.803 315.864 80.1364C315.542 80.4659 315.144 80.7235 314.67 80.9091C314.197 81.0909 313.665 81.1818 313.074 81.1818ZM320.705 81L318.045 72.2727H319.455L321.341 78.9545H321.432L323.295 72.2727H324.727L326.568 78.9318H326.659L328.545 72.2727H329.955L327.295 81H325.977L324.068 74.2955H323.932L322.023 81H320.705Z" fill="#BDBDBD"/>
<rect x="-292" y="110" width="647" height="200" rx="16" fill="#1B1F24"/>
<path d="M293.472 143.562C293.419 143.066 293.195 142.68 292.801 142.403C292.411 142.127 291.903 141.989 291.278 141.989C290.839 141.989 290.462 142.055 290.148 142.188C289.833 142.32 289.593 142.5 289.426 142.727C289.259 142.955 289.174 143.214 289.17 143.506C289.17 143.748 289.225 143.958 289.335 144.136C289.449 144.314 289.602 144.466 289.795 144.591C289.989 144.712 290.203 144.814 290.438 144.898C290.672 144.981 290.909 145.051 291.148 145.108L292.239 145.381C292.678 145.483 293.1 145.621 293.506 145.795C293.915 145.97 294.28 146.189 294.602 146.455C294.928 146.72 295.186 147.04 295.375 147.415C295.564 147.79 295.659 148.229 295.659 148.733C295.659 149.415 295.485 150.015 295.136 150.534C294.788 151.049 294.284 151.453 293.625 151.744C292.97 152.032 292.176 152.176 291.244 152.176C290.339 152.176 289.553 152.036 288.886 151.756C288.223 151.475 287.705 151.066 287.33 150.528C286.958 149.991 286.758 149.335 286.727 148.562H288.801C288.831 148.968 288.956 149.305 289.176 149.574C289.396 149.843 289.682 150.044 290.034 150.176C290.39 150.309 290.788 150.375 291.227 150.375C291.686 150.375 292.087 150.307 292.432 150.17C292.78 150.03 293.053 149.837 293.25 149.591C293.447 149.341 293.547 149.049 293.551 148.716C293.547 148.413 293.458 148.163 293.284 147.966C293.11 147.765 292.866 147.598 292.551 147.466C292.241 147.33 291.877 147.208 291.46 147.102L290.136 146.761C289.178 146.515 288.42 146.142 287.864 145.642C287.311 145.138 287.034 144.47 287.034 143.636C287.034 142.951 287.22 142.35 287.591 141.835C287.966 141.32 288.475 140.92 289.119 140.636C289.763 140.348 290.492 140.205 291.307 140.205C292.133 140.205 292.856 140.348 293.477 140.636C294.102 140.92 294.593 141.316 294.949 141.824C295.305 142.328 295.489 142.907 295.5 143.562H293.472ZM299.504 146.886V152H297.447V140.364H299.459V144.756H299.561C299.766 144.263 300.082 143.875 300.51 143.591C300.942 143.303 301.491 143.159 302.158 143.159C302.764 143.159 303.292 143.286 303.743 143.54C304.194 143.794 304.542 144.165 304.788 144.653C305.038 145.142 305.163 145.739 305.163 146.443V152H303.107V146.761C303.107 146.174 302.955 145.718 302.652 145.392C302.353 145.062 301.932 144.898 301.391 144.898C301.027 144.898 300.701 144.977 300.413 145.136C300.129 145.292 299.906 145.517 299.743 145.812C299.584 146.108 299.504 146.466 299.504 146.886ZM309.771 152.176C309.218 152.176 308.72 152.078 308.277 151.881C307.838 151.68 307.489 151.384 307.232 150.994C306.978 150.604 306.851 150.123 306.851 149.551C306.851 149.059 306.942 148.652 307.124 148.33C307.305 148.008 307.554 147.75 307.868 147.557C308.182 147.364 308.536 147.218 308.93 147.119C309.328 147.017 309.739 146.943 310.163 146.898C310.675 146.845 311.089 146.797 311.408 146.756C311.726 146.71 311.957 146.642 312.101 146.551C312.249 146.456 312.322 146.311 312.322 146.114V146.08C312.322 145.652 312.196 145.32 311.942 145.085C311.688 144.85 311.322 144.733 310.845 144.733C310.341 144.733 309.942 144.843 309.646 145.062C309.355 145.282 309.158 145.542 309.055 145.841L307.135 145.568C307.286 145.038 307.536 144.595 307.885 144.239C308.233 143.879 308.66 143.61 309.163 143.432C309.667 143.25 310.224 143.159 310.834 143.159C311.254 143.159 311.673 143.208 312.089 143.307C312.506 143.405 312.887 143.568 313.232 143.795C313.576 144.019 313.853 144.324 314.061 144.71C314.273 145.097 314.379 145.58 314.379 146.159V152H312.402V150.801H312.334C312.209 151.044 312.033 151.271 311.805 151.483C311.582 151.691 311.3 151.86 310.959 151.989C310.622 152.114 310.226 152.176 309.771 152.176ZM310.305 150.665C310.718 150.665 311.076 150.583 311.379 150.42C311.682 150.254 311.915 150.034 312.078 149.761C312.245 149.489 312.328 149.191 312.328 148.869V147.841C312.264 147.894 312.154 147.943 311.999 147.989C311.847 148.034 311.677 148.074 311.487 148.108C311.298 148.142 311.11 148.172 310.925 148.199C310.739 148.225 310.578 148.248 310.442 148.267C310.135 148.309 309.86 148.377 309.618 148.472C309.375 148.566 309.184 148.699 309.044 148.869C308.904 149.036 308.834 149.252 308.834 149.517C308.834 149.896 308.972 150.182 309.249 150.375C309.525 150.568 309.877 150.665 310.305 150.665ZM316.447 152V143.273H318.442V144.727H318.533C318.692 144.223 318.964 143.835 319.351 143.562C319.741 143.286 320.186 143.148 320.686 143.148C320.8 143.148 320.927 143.153 321.067 143.165C321.211 143.172 321.33 143.186 321.425 143.205V145.097C321.338 145.066 321.199 145.04 321.01 145.017C320.824 144.991 320.644 144.977 320.47 144.977C320.095 144.977 319.758 145.059 319.459 145.222C319.163 145.381 318.93 145.602 318.76 145.886C318.589 146.17 318.504 146.498 318.504 146.869V152H316.447ZM326.295 152.17C325.42 152.17 324.665 151.989 324.028 151.625C323.396 151.258 322.909 150.739 322.568 150.068C322.227 149.394 322.057 148.6 322.057 147.688C322.057 146.79 322.227 146.002 322.568 145.324C322.913 144.642 323.394 144.112 324.011 143.733C324.629 143.35 325.354 143.159 326.188 143.159C326.725 143.159 327.233 143.246 327.71 143.42C328.191 143.591 328.616 143.856 328.983 144.216C329.354 144.576 329.646 145.034 329.858 145.591C330.07 146.144 330.176 146.803 330.176 147.568V148.199H323.023V146.812H328.205C328.201 146.419 328.116 146.068 327.949 145.761C327.782 145.451 327.549 145.206 327.25 145.028C326.955 144.85 326.61 144.761 326.216 144.761C325.795 144.761 325.426 144.864 325.108 145.068C324.79 145.269 324.542 145.534 324.364 145.864C324.189 146.189 324.1 146.547 324.097 146.938V148.148C324.097 148.655 324.189 149.091 324.375 149.455C324.561 149.814 324.82 150.091 325.153 150.284C325.487 150.473 325.877 150.568 326.324 150.568C326.623 150.568 326.894 150.527 327.136 150.443C327.379 150.356 327.589 150.229 327.767 150.062C327.945 149.896 328.08 149.689 328.17 149.443L330.091 149.659C329.97 150.167 329.739 150.61 329.398 150.989C329.061 151.364 328.629 151.655 328.102 151.864C327.576 152.068 326.973 152.17 326.295 152.17Z" fill="#27E09D"/>
<path d="M230.705 192.364L233.733 201.523H233.852L236.875 192.364H239.193L235.091 204H232.489L228.392 192.364H230.705ZM240.635 204V195.273H242.692V204H240.635ZM241.669 194.034C241.343 194.034 241.063 193.926 240.828 193.71C240.593 193.491 240.476 193.227 240.476 192.92C240.476 192.61 240.593 192.347 240.828 192.131C241.063 191.911 241.343 191.801 241.669 191.801C241.999 191.801 242.279 191.911 242.51 192.131C242.745 192.347 242.862 192.61 242.862 192.92C242.862 193.227 242.745 193.491 242.51 193.71C242.279 193.926 241.999 194.034 241.669 194.034ZM248.67 204.17C247.795 204.17 247.04 203.989 246.403 203.625C245.771 203.258 245.284 202.739 244.943 202.068C244.602 201.394 244.432 200.6 244.432 199.688C244.432 198.79 244.602 198.002 244.943 197.324C245.288 196.642 245.769 196.112 246.386 195.733C247.004 195.35 247.729 195.159 248.562 195.159C249.1 195.159 249.608 195.246 250.085 195.42C250.566 195.591 250.991 195.856 251.358 196.216C251.729 196.576 252.021 197.034 252.233 197.591C252.445 198.144 252.551 198.803 252.551 199.568V200.199H245.398V198.812H250.58C250.576 198.419 250.491 198.068 250.324 197.761C250.157 197.451 249.924 197.206 249.625 197.028C249.33 196.85 248.985 196.761 248.591 196.761C248.17 196.761 247.801 196.864 247.483 197.068C247.165 197.269 246.917 197.534 246.739 197.864C246.564 198.189 246.475 198.547 246.472 198.938V200.148C246.472 200.655 246.564 201.091 246.75 201.455C246.936 201.814 247.195 202.091 247.528 202.284C247.862 202.473 248.252 202.568 248.699 202.568C248.998 202.568 249.269 202.527 249.511 202.443C249.754 202.356 249.964 202.229 250.142 202.062C250.32 201.896 250.455 201.689 250.545 201.443L252.466 201.659C252.345 202.167 252.114 202.61 251.773 202.989C251.436 203.364 251.004 203.655 250.477 203.864C249.951 204.068 249.348 204.17 248.67 204.17ZM256.045 204L253.58 195.273H255.676L257.21 201.409H257.29L258.858 195.273H260.932L262.5 201.375H262.585L264.097 195.273H266.199L263.727 204H261.585L259.949 198.102H259.83L258.193 204H256.045ZM271.249 204.17C270.374 204.17 269.618 203.989 268.982 203.625C268.349 203.258 267.862 202.739 267.521 202.068C267.18 201.394 267.01 200.6 267.01 199.688C267.01 198.79 267.18 198.002 267.521 197.324C267.866 196.642 268.347 196.112 268.964 195.733C269.582 195.35 270.307 195.159 271.141 195.159C271.679 195.159 272.186 195.246 272.663 195.42C273.144 195.591 273.569 195.856 273.936 196.216C274.307 196.576 274.599 197.034 274.811 197.591C275.023 198.144 275.129 198.803 275.129 199.568V200.199H267.976V198.812H273.158C273.154 198.419 273.069 198.068 272.902 197.761C272.735 197.451 272.502 197.206 272.203 197.028C271.908 196.85 271.563 196.761 271.169 196.761C270.749 196.761 270.379 196.864 270.061 197.068C269.743 197.269 269.495 197.534 269.317 197.864C269.143 198.189 269.054 198.547 269.05 198.938V200.148C269.05 200.655 269.143 201.091 269.328 201.455C269.514 201.814 269.773 202.091 270.107 202.284C270.44 202.473 270.83 202.568 271.277 202.568C271.576 202.568 271.847 202.527 272.089 202.443C272.332 202.356 272.542 202.229 272.72 202.062C272.898 201.896 273.033 201.689 273.124 201.443L275.044 201.659C274.923 202.167 274.692 202.61 274.351 202.989C274.014 203.364 273.582 203.655 273.055 203.864C272.529 204.068 271.927 204.17 271.249 204.17ZM276.869 204V195.273H278.864V196.727H278.955C279.114 196.223 279.386 195.835 279.773 195.562C280.163 195.286 280.608 195.148 281.108 195.148C281.222 195.148 281.348 195.153 281.489 195.165C281.633 195.172 281.752 195.186 281.847 195.205V197.097C281.759 197.066 281.621 197.04 281.432 197.017C281.246 196.991 281.066 196.977 280.892 196.977C280.517 196.977 280.18 197.059 279.881 197.222C279.585 197.381 279.352 197.602 279.182 197.886C279.011 198.17 278.926 198.498 278.926 198.869V204H276.869Z" fill="#BDBDBD"/>
<g clip-path="url(#clip3_510_46466)">
<path d="M306.5 195.75L311 200.25L315.5 195.75" stroke="#BDBDBD" stroke-width="1.5"/>
</g>
<path d="M231.247 232.364L234.275 241.523H234.394L237.417 232.364H239.735L235.633 244H233.031L228.934 232.364H231.247ZM241.177 244V235.273H243.234V244H241.177ZM242.211 234.034C241.885 234.034 241.605 233.926 241.37 233.71C241.135 233.491 241.018 233.227 241.018 232.92C241.018 232.61 241.135 232.347 241.37 232.131C241.605 231.911 241.885 231.801 242.211 231.801C242.541 231.801 242.821 231.911 243.052 232.131C243.287 232.347 243.404 232.61 243.404 232.92C243.404 233.227 243.287 233.491 243.052 233.71C242.821 233.926 242.541 234.034 242.211 234.034ZM249.212 244.17C248.337 244.17 247.582 243.989 246.945 243.625C246.313 243.258 245.826 242.739 245.485 242.068C245.144 241.394 244.974 240.6 244.974 239.688C244.974 238.79 245.144 238.002 245.485 237.324C245.83 236.642 246.311 236.112 246.928 235.733C247.546 235.35 248.271 235.159 249.104 235.159C249.642 235.159 250.15 235.246 250.627 235.42C251.108 235.591 251.533 235.856 251.9 236.216C252.271 236.576 252.563 237.034 252.775 237.591C252.987 238.144 253.093 238.803 253.093 239.568V240.199H245.94V238.812H251.122C251.118 238.419 251.033 238.068 250.866 237.761C250.699 237.451 250.466 237.206 250.167 237.028C249.872 236.85 249.527 236.761 249.133 236.761C248.712 236.761 248.343 236.864 248.025 237.068C247.707 237.269 247.459 237.534 247.281 237.864C247.106 238.189 247.017 238.547 247.014 238.938V240.148C247.014 240.655 247.106 241.091 247.292 241.455C247.478 241.814 247.737 242.091 248.07 242.284C248.404 242.473 248.794 242.568 249.241 242.568C249.54 242.568 249.811 242.527 250.053 242.443C250.296 242.356 250.506 242.229 250.684 242.062C250.862 241.896 250.997 241.689 251.087 241.443L253.008 241.659C252.887 242.167 252.656 242.61 252.315 242.989C251.978 243.364 251.546 243.655 251.019 243.864C250.493 244.068 249.89 244.17 249.212 244.17ZM256.587 244L254.122 235.273H256.218L257.752 241.409H257.832L259.4 235.273H261.474L263.042 241.375H263.127L264.639 235.273H266.741L264.269 244H262.127L260.491 238.102H260.372L258.735 244H256.587ZM271.791 244.17C270.916 244.17 270.16 243.989 269.524 243.625C268.891 243.258 268.404 242.739 268.063 242.068C267.722 241.394 267.552 240.6 267.552 239.688C267.552 238.79 267.722 238.002 268.063 237.324C268.408 236.642 268.889 236.112 269.506 235.733C270.124 235.35 270.849 235.159 271.683 235.159C272.22 235.159 272.728 235.246 273.205 235.42C273.686 235.591 274.111 235.856 274.478 236.216C274.849 236.576 275.141 237.034 275.353 237.591C275.565 238.144 275.671 238.803 275.671 239.568V240.199H268.518V238.812H273.7C273.696 238.419 273.611 238.068 273.444 237.761C273.277 237.451 273.044 237.206 272.745 237.028C272.45 236.85 272.105 236.761 271.711 236.761C271.291 236.761 270.921 236.864 270.603 237.068C270.285 237.269 270.037 237.534 269.859 237.864C269.685 238.189 269.595 238.547 269.592 238.938V240.148C269.592 240.655 269.685 241.091 269.87 241.455C270.056 241.814 270.315 242.091 270.649 242.284C270.982 242.473 271.372 242.568 271.819 242.568C272.118 242.568 272.389 242.527 272.631 242.443C272.874 242.356 273.084 242.229 273.262 242.062C273.44 241.896 273.575 241.689 273.666 241.443L275.586 241.659C275.465 242.167 275.234 242.61 274.893 242.989C274.556 243.364 274.124 243.655 273.597 243.864C273.071 244.068 272.469 244.17 271.791 244.17ZM277.411 244V235.273H279.406V236.727H279.497C279.656 236.223 279.928 235.835 280.315 235.562C280.705 235.286 281.15 235.148 281.65 235.148C281.764 235.148 281.89 235.153 282.031 235.165C282.175 235.172 282.294 235.186 282.389 235.205V237.097C282.301 237.066 282.163 237.04 281.974 237.017C281.788 236.991 281.608 236.977 281.434 236.977C281.059 236.977 280.722 237.059 280.423 237.222C280.127 237.381 279.894 237.602 279.724 237.886C279.553 238.17 279.468 238.498 279.468 238.869V244H277.411Z" fill="#BDBDBD"/>
<g clip-path="url(#clip4_510_46466)">
<path d="M307.042 235.75L311.542 240.25L316.042 235.75" stroke="#BDBDBD" stroke-width="1.5"/>
</g>
<path d="M235.898 283V271.364H243.466V273.131H238.006V276.29H243.074V278.057H238.006V281.233H243.511V283H235.898ZM248.764 283.153C248.079 283.153 247.465 282.977 246.923 282.625C246.382 282.273 245.954 281.761 245.639 281.091C245.325 280.42 245.168 279.606 245.168 278.648C245.168 277.678 245.327 276.86 245.645 276.193C245.967 275.523 246.401 275.017 246.946 274.676C247.491 274.331 248.099 274.159 248.77 274.159C249.281 274.159 249.702 274.246 250.031 274.42C250.361 274.591 250.622 274.797 250.815 275.04C251.009 275.278 251.158 275.504 251.264 275.716H251.349V271.364H253.412V283H251.389V281.625H251.264C251.158 281.837 251.005 282.062 250.804 282.301C250.603 282.536 250.338 282.737 250.009 282.903C249.679 283.07 249.264 283.153 248.764 283.153ZM249.338 281.466C249.774 281.466 250.145 281.348 250.452 281.114C250.759 280.875 250.991 280.544 251.151 280.119C251.31 279.695 251.389 279.201 251.389 278.636C251.389 278.072 251.31 277.581 251.151 277.165C250.995 276.748 250.764 276.424 250.457 276.193C250.154 275.962 249.781 275.847 249.338 275.847C248.88 275.847 248.497 275.966 248.19 276.205C247.884 276.443 247.652 276.773 247.497 277.193C247.342 277.614 247.264 278.095 247.264 278.636C247.264 279.182 247.342 279.669 247.497 280.097C247.656 280.521 247.889 280.856 248.196 281.102C248.507 281.345 248.887 281.466 249.338 281.466ZM255.604 283V274.273H257.661V283H255.604ZM256.638 273.034C256.312 273.034 256.032 272.926 255.797 272.71C255.562 272.491 255.445 272.227 255.445 271.92C255.445 271.61 255.562 271.347 255.797 271.131C256.032 270.911 256.312 270.801 256.638 270.801C256.967 270.801 257.248 270.911 257.479 271.131C257.714 271.347 257.831 271.61 257.831 271.92C257.831 272.227 257.714 272.491 257.479 272.71C257.248 272.926 256.967 273.034 256.638 273.034ZM264.134 274.273V275.864H259.116V274.273H264.134ZM260.355 272.182H262.412V280.375C262.412 280.652 262.454 280.864 262.537 281.011C262.624 281.155 262.738 281.254 262.878 281.307C263.018 281.36 263.173 281.386 263.344 281.386C263.473 281.386 263.59 281.377 263.696 281.358C263.806 281.339 263.889 281.322 263.946 281.307L264.293 282.915C264.183 282.953 264.026 282.994 263.821 283.04C263.62 283.085 263.374 283.112 263.082 283.119C262.567 283.134 262.103 283.057 261.69 282.886C261.277 282.712 260.95 282.443 260.707 282.08C260.469 281.716 260.351 281.261 260.355 280.716V272.182ZM269.567 283.17C268.714 283.17 267.976 282.983 267.351 282.608C266.726 282.233 266.241 281.708 265.896 281.034C265.555 280.36 265.385 279.572 265.385 278.67C265.385 277.769 265.555 276.979 265.896 276.301C266.241 275.623 266.726 275.097 267.351 274.722C267.976 274.347 268.714 274.159 269.567 274.159C270.419 274.159 271.158 274.347 271.783 274.722C272.408 275.097 272.891 275.623 273.232 276.301C273.576 276.979 273.749 277.769 273.749 278.67C273.749 279.572 273.576 280.36 273.232 281.034C272.891 281.708 272.408 282.233 271.783 282.608C271.158 282.983 270.419 283.17 269.567 283.17ZM269.578 281.523C270.04 281.523 270.427 281.396 270.737 281.142C271.048 280.884 271.279 280.54 271.43 280.108C271.586 279.676 271.663 279.195 271.663 278.665C271.663 278.131 271.586 277.648 271.43 277.216C271.279 276.78 271.048 276.434 270.737 276.176C270.427 275.919 270.04 275.79 269.578 275.79C269.105 275.79 268.711 275.919 268.396 276.176C268.086 276.434 267.853 276.78 267.697 277.216C267.546 277.648 267.47 278.131 267.47 278.665C267.47 279.195 267.546 279.676 267.697 280.108C267.853 280.54 268.086 280.884 268.396 281.142C268.711 281.396 269.105 281.523 269.578 281.523ZM275.494 283V274.273H277.489V275.727H277.58C277.739 275.223 278.011 274.835 278.398 274.562C278.788 274.286 279.233 274.148 279.733 274.148C279.847 274.148 279.973 274.153 280.114 274.165C280.258 274.172 280.377 274.186 280.472 274.205V276.097C280.384 276.066 280.246 276.04 280.057 276.017C279.871 275.991 279.691 275.977 279.517 275.977C279.142 275.977 278.805 276.059 278.506 276.222C278.21 276.381 277.977 276.602 277.807 276.886C277.636 277.17 277.551 277.498 277.551 277.869V283H275.494Z" fill="#BDBDBD"/>
<g clip-path="url(#clip5_510_46466)">
<path d="M305.25 274.75L309.75 279.25L314.25 274.75" stroke="#BDBDBD" stroke-width="1.5"/>
</g>
</g>
<defs>
<clipPath id="clip0_510_46466">
<rect width="355" height="310" fill="white"/>
</clipPath>
<clipPath id="clip1_510_46466">
<rect x="164" y="20" width="24" height="24" rx="12" fill="white"/>
</clipPath>
<clipPath id="clip2_510_46466">
<rect x="299" y="22" width="20" height="20" rx="10" fill="white"/>
</clipPath>
<clipPath id="clip3_510_46466">
<rect x="299" y="186" width="24" height="24" rx="12" fill="white"/>
</clipPath>
<clipPath id="clip4_510_46466">
<rect x="299.542" y="226" width="24" height="24" rx="12" fill="white"/>
</clipPath>
<clipPath id="clip5_510_46466">
<rect x="297.75" y="265" width="24" height="24" rx="12" fill="white"/>
</clipPath>
</defs>
</svg>
