<svg width="49" height="41" viewBox="0 0 49 41" fill="none" xmlns="http://www.w3.org/2000/svg">
<rect width="48.8496" height="40.8496" rx="20.4248" fill="#292F33"/>
<path d="M24.1084 12.9707C24.2172 12.6766 24.6324 12.6766 24.7412 12.9707L26.376 17.3877C26.5621 17.8907 26.9589 18.2875 27.4619 18.4736L31.8789 20.1084C32.173 20.2172 32.173 20.6324 31.8789 20.7412L27.4619 22.376C26.9589 22.5621 26.5621 22.9589 26.376 23.4619L24.7412 27.8789C24.6324 28.173 24.2172 28.173 24.1084 27.8789L22.4736 23.4619C22.2875 22.9589 21.8907 22.5621 21.3877 22.376L16.9707 20.7412C16.6766 20.6324 16.6766 20.2172 16.9707 20.1084L21.3877 18.4736C21.8907 18.2875 22.2875 17.8907 22.4736 17.3877L24.1084 12.9707Z" stroke="#27E09D" stroke-width="1.5"/>
</svg>
