<svg width="248" height="172" viewBox="0 0 248 172" fill="none" xmlns="http://www.w3.org/2000/svg">
<rect width="248" height="172" fill="#30307C"/>
<path fill-rule="evenodd" clip-rule="evenodd" d="M0 0H248V172H0V0Z" fill="#828BD3"/>
<mask id="mask0" style="mask-type:alpha" maskUnits="userSpaceOnUse" x="0" y="0" width="248" height="172">
<path fill-rule="evenodd" clip-rule="evenodd" d="M0 0H248V172H0V0Z" fill="white"/>
</mask>
<g mask="url(#mask0)">
<path d="M174.779 90.8713C174.779 90.8713 182.158 101.785 184.548 123.572C186.938 145.359 185.117 161.189 185.117 161.189" stroke="#515BAE" stroke-width="0.860175"/>
<path fill-rule="evenodd" clip-rule="evenodd" d="M169.913 83.4024C169.913 83.4024 168.379 78.5534 164.295 76.2966C160.211 74.0398 156.753 74.8886 155.707 76.1388C154.66 77.389 155.973 81.9328 160.134 83.5497C164.295 85.1667 169.913 83.4024 169.913 83.4024Z" fill="#636ECA"/>
<path fill-rule="evenodd" clip-rule="evenodd" d="M181.311 103.573C181.311 103.573 179.208 99.0817 177.801 97.5841C176.394 96.0865 172.75 95.4726 171.825 97.5566C170.901 99.6407 173.314 102.104 175.49 102.665C177.666 103.226 181.311 103.573 181.311 103.573Z" fill="#636ECA"/>
<path fill-rule="evenodd" clip-rule="evenodd" d="M186.06 155.956C186.06 155.956 187.217 149.585 189.87 147.056C192.523 144.528 196.343 144.243 198.153 145.65C199.962 147.056 198.264 151.775 195.347 153.866C192.43 155.956 186.06 155.956 186.06 155.956Z" fill="#636ECA"/>
<path fill-rule="evenodd" clip-rule="evenodd" d="M184.811 118.375C184.811 118.375 183.393 121.246 181.106 122.077C178.818 122.907 175.749 122.97 175.051 121.164C174.352 119.358 176.456 117.637 178.755 117.162C181.053 116.688 184.811 118.375 184.811 118.375Z" fill="#636ECA"/>
<path fill-rule="evenodd" clip-rule="evenodd" d="M184.973 123.695C184.973 123.695 187.708 123.494 189.323 121.853C190.938 120.213 192.278 117.246 191.145 115.869C190.012 114.493 187.36 115.092 185.728 117.87C184.095 120.647 184.973 123.695 184.973 123.695Z" fill="#636ECA"/>
<path fill-rule="evenodd" clip-rule="evenodd" d="M176.427 93.1808C176.427 93.1808 173.708 86.7005 174.809 82.8543C175.909 79.0082 177.627 76.1264 180.905 77.067C184.182 78.0077 184.49 82.5634 183.189 86.4574C181.888 90.3513 176.427 93.1808 176.427 93.1808Z" fill="#636ECA"/>
<path fill-rule="evenodd" clip-rule="evenodd" d="M197.898 161.65C197.898 161.175 197.513 160.79 197.038 160.79H171.371C170.896 160.79 170.511 161.175 170.511 161.65V165.932C170.511 166.407 170.896 166.792 171.371 166.792H197.038C197.513 166.792 197.898 166.407 197.898 165.932V161.65Z" fill="#515BAE"/>
<path fill-rule="evenodd" clip-rule="evenodd" d="M195.899 163.786H171.936L174.114 178.364H193.721L195.899 163.786Z" fill="#515BAE"/>
<path fill-rule="evenodd" clip-rule="evenodd" d="M185.905 139.876C185.905 139.876 185.241 137.258 183.636 136.054C182.03 134.851 179.416 134.214 178.526 135.627C177.637 137.039 178.603 139.486 181.119 140.451C183.636 141.416 185.905 139.876 185.905 139.876Z" fill="#636ECA"/>
<path fill-rule="evenodd" clip-rule="evenodd" d="M182.906 117.928C181.485 115.263 179.632 113.495 177.346 112.624C173.917 111.318 168.21 111.655 167.452 113.659C166.694 115.663 168.839 117.816 172.922 118.967C175.644 119.734 178.972 119.387 182.906 117.928Z" fill="#515BAE"/>
<path fill-rule="evenodd" clip-rule="evenodd" d="M175.91 93.3638C175.688 89.4672 174.884 86.5142 173.496 84.5046C171.414 81.4903 167.747 79.2624 166.041 82.4095C164.336 85.5566 165.416 87.952 167.86 90.3177C169.49 91.8948 172.173 92.9102 175.91 93.3638Z" fill="#515BAE"/>
<path fill-rule="evenodd" clip-rule="evenodd" d="M184.905 156.247C184.905 156.247 182.592 152.928 180.434 152.09C178.275 151.252 173.811 152.418 173.78 153.231C173.749 154.044 175.984 157.301 178.472 157.725C180.96 158.15 184.905 156.247 184.905 156.247Z" fill="#515BAE"/>
<path fill-rule="evenodd" clip-rule="evenodd" d="M184.811 120.368C187.186 119.999 188.885 119.4 189.909 118.572C191.443 117.33 192.555 114.976 191.464 113.629C190.372 112.282 188.957 112.721 186.668 114.573C185.142 115.808 184.523 117.74 184.811 120.368Z" fill="#515BAE"/>
<path fill-rule="evenodd" clip-rule="evenodd" d="M184.905 138.243C184.905 138.243 184.251 141.557 182.261 142.753C180.272 143.949 176.706 144.384 175.762 142.753C174.817 141.122 176.489 139.095 178.547 138.243C180.604 137.39 184.905 138.243 184.905 138.243Z" fill="#515BAE"/>
<path fill-rule="evenodd" clip-rule="evenodd" d="M180.907 103.755C180.907 103.755 177.144 107.579 173.163 107.579C169.182 107.579 166.737 106.231 166.383 103.755C166.029 101.279 169.442 99.3789 173.634 99.9692C177.825 100.559 180.907 103.755 180.907 103.755Z" fill="#515BAE"/>
<path fill-rule="evenodd" clip-rule="evenodd" d="M185.905 132.46C185.905 132.46 184.306 128.356 181.509 126.873C178.712 125.389 173.948 125.428 173.23 127.389C172.512 129.35 174.203 131.613 177.55 132.975C180.898 134.338 185.905 132.46 185.905 132.46Z" fill="#515BAE"/>
<path fill-rule="evenodd" clip-rule="evenodd" d="M186.382 137.776C187.638 139.067 188.931 139.792 190.259 139.952C192.252 140.192 194.834 139.437 194.898 137.769C194.962 136.102 192.9 134.465 190.238 134.887C188.464 135.168 187.178 136.131 186.382 137.776Z" fill="#515BAE"/>
<path fill-rule="evenodd" clip-rule="evenodd" d="M183.949 113.247C186.211 112.948 187.885 112.237 188.973 111.114C190.603 109.429 191.572 106.649 190.354 105.336C189.136 104.024 186.767 105.592 185.202 107.666C184.159 109.049 183.742 110.909 183.949 113.247Z" fill="#515BAE"/>
<path fill-rule="evenodd" clip-rule="evenodd" d="M181.567 102.736C181.567 102.736 181.123 95.6562 183.161 93.0751C185.199 90.4939 188.756 89.0128 190.083 90.4101C191.411 91.8075 191.164 96.2738 189.049 98.7947C186.934 101.316 181.567 102.736 181.567 102.736Z" fill="#515BAE"/>
<path fill-rule="evenodd" clip-rule="evenodd" d="M186.198 154.957C186.198 154.957 192.451 152.681 193.455 149.69C194.459 146.7 193.612 144.418 192.431 143.881C191.251 143.343 186.623 145.935 186.411 148.422C186.198 150.908 186.198 154.957 186.198 154.957Z" fill="#515BAE"/>
<path fill-rule="evenodd" clip-rule="evenodd" d="M185.629 133.079C185.629 133.079 185.629 129.654 188.002 126.948C190.374 124.242 193.756 123.008 195.077 124.427C196.398 125.847 196.274 128.658 193.625 131.268C190.975 133.877 185.629 133.079 185.629 133.079Z" fill="#515BAE"/>
<path d="M220.886 119.838L226.241 198.167" stroke="#222F56" stroke-width="8.60175"/>
<path d="M203.895 119.838L212.823 196.832" stroke="#222F56" stroke-width="8.60175"/>
<path d="M202.383 56.9111C202.383 56.9111 194.967 71.7859 185.097 74.4111C175.228 77.0363 168.913 59.1907 168.913 59.1907" stroke="#F5F6FB" stroke-width="8.60175" stroke-linecap="round"/>
<path d="M219.549 27.9451C219.549 27.9451 220.348 43.0277 219.549 47.3857" stroke="#222F56" stroke-width="26.4669" stroke-linecap="round"/>
<path fill-rule="evenodd" clip-rule="evenodd" d="M199.36 54.9136L236.07 61.0247C236.07 61.0247 237.809 83.9941 237.809 98.6193C237.809 113.245 238.712 136.48 237.809 137.851C236.906 139.223 220.789 140.066 212.062 140.066C203.334 140.066 192.728 139.691 191.821 137.851C190.913 136.012 189.038 126.085 190.359 98.6193C191.68 71.1535 199.36 54.9136 199.36 54.9136Z" fill="white"/>
<path fill-rule="evenodd" clip-rule="evenodd" d="M217.407 81.9206C228.182 81.9206 236.917 73.1917 236.917 62.424C236.917 51.6564 228.182 42.9275 217.407 42.9275C206.633 42.9275 197.898 51.6564 197.898 62.424C197.898 73.1917 206.633 81.9206 217.407 81.9206Z" fill="white"/>
<path fill-rule="evenodd" clip-rule="evenodd" d="M209.897 25.8961C210.059 21.4656 213.697 17.9572 218.131 17.9572V17.9572C222.798 17.9572 226.534 21.8311 226.364 26.4957L225.712 44.3984C225.551 48.8289 221.912 52.3373 217.479 52.3373V52.3373C212.811 52.3373 209.076 48.4634 209.246 43.7989L209.897 25.8961Z" fill="#FDD156"/>
<path d="M222.885 18.9556C223.977 22.3745 229.372 28.518 229.372 28.518" stroke="#222F56" stroke-width="5.29339" stroke-linecap="round"/>
<path d="M219.887 18.9556C219.887 18.9556 216.936 20.7841 214.592 22.2093C212.248 23.6345 209.519 24.8622 208.373 25.2327" stroke="#222F56" stroke-width="7.27841" stroke-linecap="round"/>
<path d="M231.881 57.9099C231.881 57.9099 237.051 67.6676 237.051 80.4024C237.051 93.1373 233.174 98.7731 233.174 98.7731" stroke="#F5F6FB" stroke-width="8.60175" stroke-linecap="round"/>
<path d="M228.882 52.9158C228.882 52.9158 237.972 65.941 237.972 80.3491C237.972 94.7573 232.139 99.8235 232.139 99.8235" stroke="white" stroke-width="8.60175" stroke-linecap="round"/>
<path d="M173.207 50.9182C173.207 50.9182 172.302 52.5177 171.983 53.4C171.665 54.2823 170.912 55.1562 170.912 55.1562" stroke="#FDD156" stroke-width="2.64669" stroke-linecap="round"/>
<path d="M165.915 48.9207C165.915 48.9207 166.291 50.75 166.779 52.174C167.266 53.5979 168.358 55.4273 168.358 55.4273" stroke="#FDD156" stroke-width="8.60175" stroke-linecap="round"/>
<path d="M209.816 77.8867C209.816 77.8867 208.689 89.3049 208.093 102.699C207.496 116.092 208.682 134.135 208.682 134.135" stroke="#F5F6FB" stroke-width="0.860175" stroke-linecap="round"/>
<path fill-rule="evenodd" clip-rule="evenodd" d="M209.055 44.9253C209.055 44.9253 211.985 47.5299 214.866 47.9657C217.748 48.4016 225.771 45.5224 225.771 45.5224C225.771 45.5224 223.982 51.5513 222.491 54.0181C219.552 58.878 212.879 69.7682 211.459 69.7682C210.038 69.7682 209.395 58.7841 209.055 54.4635C208.731 50.3562 209.055 44.9253 209.055 44.9253Z" fill="#F7986B"/>
<path d="M204.018 49.9194L203.895 56.2569L206.48 56.1396L204.018 58.8432L208.678 76.677" stroke="#F5F6FB" stroke-width="0.860175" stroke-linecap="round"/>
<path d="M229.274 48.9207L226.727 56.3633L222.892 55.0439L223.54 60.4632L209.892 76.1288" stroke="#F5F6FB" stroke-width="0.860175" stroke-linecap="round"/>
<path fill-rule="evenodd" clip-rule="evenodd" d="M212.903 34.6273C213.034 34.468 213.546 34.6875 216.095 34.4682C218.643 34.2489 219.285 33.8442 219.494 33.9577C219.702 34.0712 219.127 35.5288 216.382 35.8254C213.637 36.1219 212.773 34.7865 212.903 34.6273Z" fill="#D7902C"/>
<path d="M225.884 97.8633C225.884 97.8633 228.637 99.1995 231.571 100.213C234.506 101.227 237.392 101.227 237.392 101.227" stroke="#F5F6FB" stroke-width="0.661673" stroke-linecap="round"/>
<g filter="url(#filter0_dd)">
<path fill-rule="evenodd" clip-rule="evenodd" d="M12.9932 126.71C12.9932 117.95 20.0946 110.848 28.8547 110.848H218.678C227.438 110.848 234.54 117.95 234.54 126.71V126.71C234.54 135.47 227.438 142.571 218.678 142.571H28.8547C20.0946 142.571 12.9932 135.47 12.9932 126.71V126.71Z" fill="white"/>
</g>
<path opacity="0.5" d="M27.3835 130.013C29.0481 130.013 30.1388 129.145 30.1388 127.749V127.744C30.1388 126.669 29.5236 126.043 27.9677 125.697L27.1406 125.511C26.1274 125.289 25.719 124.885 25.719 124.291V124.286C25.719 123.505 26.4376 123.066 27.368 123.061C28.3399 123.055 28.9602 123.541 29.0636 124.198L29.0739 124.265H30.0044L29.9992 124.193C29.9217 123.081 28.8827 122.203 27.3939 122.203C25.8534 122.203 24.773 123.076 24.7679 124.312V124.317C24.7679 125.397 25.414 126.085 26.908 126.416L27.7351 126.596C28.7586 126.824 29.1876 127.248 29.1876 127.868V127.873C29.1876 128.633 28.4484 129.155 27.4352 129.155C26.36 129.155 25.5846 128.685 25.5174 127.941L25.5123 127.884H24.5818L24.5869 127.941C24.6955 129.155 25.75 130.013 27.3835 130.013ZM33.5557 129.879C33.7315 129.879 33.9021 129.858 34.0778 129.827V129.062C33.9124 129.078 33.8245 129.083 33.6643 129.083C33.0853 129.083 32.8579 128.819 32.8579 128.163V125.009H34.0778V124.265H32.8579V122.823H31.9274V124.265H31.0486V125.009H31.9274V128.39C31.9274 129.455 32.4081 129.879 33.5557 129.879ZM36.952 129.936C37.7015 129.936 38.2856 129.61 38.6372 129.016H38.7199V129.838H39.6193V126.023C39.6193 124.865 38.8594 124.167 37.4999 124.167C36.311 124.167 35.4632 124.756 35.3185 125.63L35.3133 125.661H36.2128L36.2179 125.645C36.3627 125.211 36.8021 124.963 37.4689 124.963C38.3012 124.963 38.7199 125.335 38.7199 126.023V126.529L37.1226 126.627C35.8251 126.705 35.091 127.279 35.091 128.271V128.282C35.091 129.295 35.8923 129.936 36.952 129.936ZM36.0111 128.261V128.251C36.0111 127.698 36.3833 127.398 37.2311 127.346L38.7199 127.253V127.76C38.7199 128.556 38.053 129.155 37.1381 129.155C36.4919 129.155 36.0111 128.824 36.0111 128.261ZM41.2632 129.838H42.1626V126.385C42.1626 125.568 42.7726 125.025 43.6307 125.025C43.8272 125.025 43.9977 125.046 44.1838 125.077V124.203C44.096 124.188 43.9047 124.167 43.7341 124.167C42.9794 124.167 42.4573 124.508 42.2453 125.092H42.1626V124.265H41.2632V129.838ZM47.5853 129.879C47.761 129.879 47.9316 129.858 48.1074 129.827V129.062C47.9419 129.078 47.8541 129.083 47.6938 129.083C47.1149 129.083 46.8874 128.819 46.8874 128.163V125.009H48.1074V124.265H46.8874V122.823H45.9569V124.265H45.0781V125.009H45.9569V128.39C45.9569 129.455 46.4377 129.879 47.5853 129.879ZM53.9694 129.936C54.7189 129.936 55.3031 129.61 55.6546 129.016H55.7373V129.838H56.6367V126.023C56.6367 124.865 55.8769 124.167 54.5173 124.167C53.3284 124.167 52.4806 124.756 52.3359 125.63L52.3307 125.661H53.2302L53.2353 125.645C53.3801 125.211 53.8195 124.963 54.4863 124.963C55.3186 124.963 55.7373 125.335 55.7373 126.023V126.529L54.14 126.627C52.8425 126.705 52.1084 127.279 52.1084 128.271V128.282C52.1084 129.295 52.9097 129.936 53.9694 129.936ZM53.0286 128.261V128.251C53.0286 127.698 53.4007 127.398 54.2485 127.346L55.7373 127.253V127.76C55.7373 128.556 55.0704 129.155 54.1555 129.155C53.5093 129.155 53.0286 128.824 53.0286 128.261ZM61.2685 129.838H62.1679V126.54C62.1679 125.563 62.7314 124.963 63.6205 124.963C64.5096 124.963 64.9232 125.444 64.9232 126.447V129.838H65.8226V126.229C65.8226 124.906 65.1248 124.167 63.8738 124.167C63.0519 124.167 62.5298 124.513 62.2506 125.103H62.1679V124.265H61.2685V129.838ZM69.7255 129.936C71.0385 129.936 71.8345 129.191 72.0258 128.437L72.0362 128.395H71.1367L71.116 128.442C70.9661 128.778 70.5009 129.135 69.7461 129.135C68.7536 129.135 68.1178 128.463 68.092 127.31H72.1034V126.958C72.1034 125.294 71.1832 124.167 69.6686 124.167C68.154 124.167 67.1718 125.346 67.1718 127.067V127.072C67.1718 128.819 68.1333 129.936 69.7255 129.936ZM69.6634 124.968C70.4854 124.968 71.0953 125.49 71.1884 126.591H68.1075C68.2057 125.532 68.8363 124.968 69.6634 124.968ZM74.5743 129.838H75.4738L76.7144 125.526H76.7971L78.0429 129.838H78.9475L80.5087 124.265H79.6144L78.5185 128.721H78.4358L77.19 124.265H76.337L75.0912 128.721H75.0085L73.9126 124.265H73.0132L74.5743 129.838ZM86.9652 129.936C88.304 129.936 89.0536 129.217 89.281 128.209L89.2913 128.152L88.4022 128.158L88.3919 128.189C88.1851 128.809 87.7095 129.14 86.96 129.14C85.9675 129.14 85.3265 128.318 85.3265 127.036V127.026C85.3265 125.769 85.9571 124.963 86.96 124.963C87.7612 124.963 88.2575 125.408 88.3971 125.955L88.4022 125.971H89.2965L89.2913 125.94C89.1259 124.947 88.3143 124.167 86.96 124.167C85.3988 124.167 84.4063 125.294 84.4063 127.026V127.036C84.4063 128.804 85.404 129.936 86.9652 129.936ZM92.8995 129.936C94.4865 129.936 95.4687 128.84 95.4687 127.057V127.046C95.4687 125.258 94.4865 124.167 92.8995 124.167C91.3126 124.167 90.3304 125.258 90.3304 127.046V127.057C90.3304 128.84 91.3126 129.936 92.8995 129.936ZM92.8995 129.14C91.845 129.14 91.2505 128.37 91.2505 127.057V127.046C91.2505 125.728 91.845 124.963 92.8995 124.963C93.9541 124.963 94.5485 125.728 94.5485 127.046V127.057C94.5485 128.37 93.9541 129.14 92.8995 129.14ZM96.8644 129.838H97.7639V126.54C97.7639 125.563 98.3273 124.963 99.2164 124.963C100.106 124.963 100.519 125.444 100.519 126.447V129.838H101.419V126.229C101.419 124.906 100.721 124.167 99.4697 124.167C98.6478 124.167 98.1257 124.513 97.8466 125.103H97.7639V124.265H96.8644V129.838ZM104.417 129.838H105.327L107.389 124.265H106.438L104.913 128.855H104.83L103.305 124.265H102.354L104.417 129.838ZM110.646 129.936C111.959 129.936 112.755 129.191 112.946 128.437L112.957 128.395H112.057L112.036 128.442C111.886 128.778 111.421 129.135 110.666 129.135C109.674 129.135 109.038 128.463 109.012 127.31H113.024V126.958C113.024 125.294 112.104 124.167 110.589 124.167C109.074 124.167 108.092 125.346 108.092 127.067V127.072C108.092 128.819 109.054 129.936 110.646 129.936ZM110.584 124.968C111.406 124.968 112.016 125.49 112.109 126.591H109.028C109.126 125.532 109.757 124.968 110.584 124.968ZM114.419 129.838H115.319V126.385C115.319 125.568 115.929 125.025 116.787 125.025C116.983 125.025 117.154 125.046 117.34 125.077V124.203C117.252 124.188 117.061 124.167 116.89 124.167C116.136 124.167 115.614 124.508 115.402 125.092H115.319V124.265H114.419V129.838ZM120.261 129.936C121.527 129.936 122.494 129.248 122.494 128.256V128.245C122.494 127.449 121.987 126.995 120.938 126.741L120.08 126.534C119.423 126.374 119.144 126.136 119.144 125.759V125.749C119.144 125.258 119.63 124.916 120.292 124.916C120.964 124.916 121.398 125.221 121.517 125.661H122.401C122.277 124.751 121.465 124.167 120.297 124.167C119.113 124.167 118.224 124.865 118.224 125.79V125.795C118.224 126.596 118.694 127.051 119.739 127.3L120.602 127.506C121.289 127.672 121.574 127.935 121.574 128.313V128.323C121.574 128.83 121.041 129.186 120.292 129.186C119.578 129.186 119.134 128.881 118.984 128.416H118.064C118.167 129.336 119.02 129.936 120.261 129.936ZM125.42 129.936C126.169 129.936 126.753 129.61 127.105 129.016H127.188V129.838H128.087V126.023C128.087 124.865 127.327 124.167 125.968 124.167C124.779 124.167 123.931 124.756 123.786 125.63L123.781 125.661H124.681L124.686 125.645C124.83 125.211 125.27 124.963 125.937 124.963C126.769 124.963 127.188 125.335 127.188 126.023V126.529L125.59 126.627C124.293 126.705 123.559 127.279 123.559 128.271V128.282C123.559 129.295 124.36 129.936 125.42 129.936ZM124.479 128.261V128.251C124.479 127.698 124.851 127.398 125.699 127.346L127.188 127.253V127.76C127.188 128.556 126.521 129.155 125.606 129.155C124.96 129.155 124.479 128.824 124.479 128.261ZM131.711 129.879C131.887 129.879 132.057 129.858 132.233 129.827V129.062C132.067 129.078 131.98 129.083 131.819 129.083C131.24 129.083 131.013 128.819 131.013 128.163V125.009H132.233V124.265H131.013V122.823H130.082V124.265H129.204V125.009H130.082V128.39C130.082 129.455 130.563 129.879 131.711 129.879ZM134.053 123.19C134.394 123.19 134.673 122.911 134.673 122.57C134.673 122.228 134.394 121.949 134.053 121.949C133.711 121.949 133.432 122.228 133.432 122.57C133.432 122.911 133.711 123.19 134.053 123.19ZM133.598 129.838H134.497V124.265H133.598V129.838ZM138.483 129.936C140.07 129.936 141.052 128.84 141.052 127.057V127.046C141.052 125.258 140.07 124.167 138.483 124.167C136.896 124.167 135.913 125.258 135.913 127.046V127.057C135.913 128.84 136.896 129.936 138.483 129.936ZM138.483 129.14C137.428 129.14 136.834 128.37 136.834 127.057V127.046C136.834 125.728 137.428 124.963 138.483 124.963C139.537 124.963 140.132 125.728 140.132 127.046V127.057C140.132 128.37 139.537 129.14 138.483 129.14ZM142.447 129.838H143.347V126.54C143.347 125.563 143.91 124.963 144.8 124.963C145.689 124.963 146.102 125.444 146.102 126.447V129.838H147.002V126.229C147.002 124.906 146.304 124.167 145.053 124.167C144.231 124.167 143.709 124.513 143.43 125.103H143.347V124.265H142.447V129.838Z" fill="#151D35"/>
<g opacity="0.5">
<path fill-rule="evenodd" clip-rule="evenodd" d="M224.497 126.466C225.325 126.87 225.325 128.021 224.497 128.425L213.112 133.967C212.551 134.24 211.892 133.843 211.892 133.232L212.377 129.185C212.422 128.807 212.728 128.509 213.116 128.464L219.12 127.854C219.624 127.803 219.624 127.088 219.12 127.037L213.116 126.427C212.728 126.382 212.422 126.084 212.377 125.706L211.892 121.658C211.892 121.048 212.551 120.651 213.112 120.924L224.497 126.466Z" fill="#151D35"/>
</g>
<path fill-rule="evenodd" clip-rule="evenodd" d="M0 159.892C0 159.892 27.1929 159.244 64.7963 162.736C102.4 166.229 132.192 170.063 181.608 166.4C231.023 162.736 248 166.502 248 166.502V173.009H0V159.892Z" fill="#30307C"/>
</g>
<path d="M21.0899 71.1361C23.5324 71.1361 25.1156 69.6047 25.1156 67.2397V66.0831H21.2903V67.2526H23.6875V67.4594C23.6746 68.8939 22.6343 69.8567 21.1093 69.8567C19.3582 69.8567 18.2597 68.4739 18.2597 66.2446V66.2317C18.2597 64.0347 19.3518 62.639 21.077 62.639C22.3564 62.639 23.2481 63.2593 23.5841 64.3643L23.6035 64.4289H25.0509L25.038 64.3643C24.702 62.5615 23.1964 61.3596 21.077 61.3596C18.4665 61.3596 16.78 63.2787 16.78 66.2381V66.2511C16.78 69.2493 18.4471 71.1361 21.0899 71.1361ZM29.923 71.0456C31.9778 71.0456 33.2378 69.6693 33.2378 67.4077V67.3948C33.2378 65.1332 31.9714 63.7569 29.923 63.7569C27.8682 63.7569 26.6017 65.1397 26.6017 67.3948V67.4077C26.6017 69.6693 27.8618 71.0456 29.923 71.0456ZM29.923 69.876C28.7147 69.876 28.0362 68.965 28.0362 67.4077V67.3948C28.0362 65.8375 28.7147 64.9264 29.923 64.9264C31.1249 64.9264 31.8098 65.8375 31.8098 67.3948V67.4077C31.8098 68.9585 31.1249 69.876 29.923 69.876ZM37.8838 71.0456C39.9386 71.0456 41.1986 69.6693 41.1986 67.4077V67.3948C41.1986 65.1332 39.9321 63.7569 37.8838 63.7569C35.829 63.7569 34.5625 65.1397 34.5625 67.3948V67.4077C34.5625 69.6693 35.8225 71.0456 37.8838 71.0456ZM37.8838 69.876C36.6754 69.876 35.997 68.965 35.997 67.4077V67.3948C35.997 65.8375 36.6754 64.9264 37.8838 64.9264C39.0856 64.9264 39.7706 65.8375 39.7706 67.3948V67.4077C39.7706 68.9585 39.0856 69.876 37.8838 69.876ZM45.431 71.0262C46.4132 71.0262 47.1821 70.5739 47.5892 69.805H47.699V70.9099H49.0947V61.1399H47.699V65.004H47.5892C47.2144 64.2479 46.3938 63.7698 45.431 63.7698C43.6476 63.7698 42.5232 65.172 42.5232 67.3948V67.4077C42.5232 69.6111 43.667 71.0262 45.431 71.0262ZM45.8316 69.8308C44.6556 69.8308 43.9513 68.9133 43.9513 67.4077V67.3948C43.9513 65.8892 44.6556 64.9717 45.8316 64.9717C46.9947 64.9717 47.7184 65.8957 47.7184 67.3948V67.4077C47.7184 68.9068 47.0012 69.8308 45.8316 69.8308ZM54.8004 70.9099H56.2026V66.6C56.2026 65.6824 56.8293 64.9587 57.6758 64.9587C58.5029 64.9587 59.0263 65.4627 59.0263 66.264V70.9099H60.422V66.4708C60.422 65.6243 61.01 64.9587 61.9017 64.9587C62.8193 64.9587 63.2587 65.4369 63.2587 66.4061V70.9099H64.6544V66.0701C64.6544 64.6098 63.8273 63.7569 62.4122 63.7569C61.4365 63.7569 60.6288 64.2544 60.2734 65.0104H60.1636C59.8534 64.2544 59.1749 63.7569 58.2186 63.7569C57.301 63.7569 56.6161 64.2027 56.3059 64.9717H56.2026V63.8926H54.8004V70.9099ZM69.5846 71.0456C71.6394 71.0456 72.8995 69.6693 72.8995 67.4077V67.3948C72.8995 65.1332 71.633 63.7569 69.5846 63.7569C67.5298 63.7569 66.2633 65.1397 66.2633 67.3948V67.4077C66.2633 69.6693 67.5234 71.0456 69.5846 71.0456ZM69.5846 69.876C68.3763 69.876 67.6978 68.965 67.6978 67.4077V67.3948C67.6978 65.8375 68.3763 64.9264 69.5846 64.9264C70.7865 64.9264 71.4714 65.8375 71.4714 67.3948V67.4077C71.4714 68.9585 70.7865 69.876 69.5846 69.876ZM74.573 70.9099H75.9752V66.7163C75.9752 65.7018 76.7054 65.0427 77.778 65.0427C78.0429 65.0427 78.282 65.075 78.534 65.1267V63.8344C78.3919 63.8021 78.1463 63.7698 77.9202 63.7698C76.9832 63.7698 76.3306 64.2092 76.0786 64.9523H75.9752V63.8926H74.573V70.9099ZM79.975 70.9099H81.3772V66.7938C81.3772 65.6631 82.0169 64.9587 83.0443 64.9587C84.0717 64.9587 84.5563 65.5338 84.5563 66.6969V70.9099H85.952V66.3674C85.952 64.6938 85.0861 63.7569 83.516 63.7569C82.495 63.7569 81.823 64.2092 81.4805 64.9587H81.3772V63.8926H79.975V70.9099ZM88.64 62.639C89.1182 62.639 89.5188 62.2448 89.5188 61.7667C89.5188 61.2821 89.1182 60.8879 88.64 60.8879C88.1554 60.8879 87.7613 61.2821 87.7613 61.7667C87.7613 62.2448 88.1554 62.639 88.64 62.639ZM87.9357 70.9099H89.3314V63.8926H87.9357V70.9099ZM91.3733 70.9099H92.7755V66.7938C92.7755 65.6631 93.4152 64.9587 94.4426 64.9587C95.47 64.9587 95.9546 65.5338 95.9546 66.6969V70.9099H97.3504V66.3674C97.3504 64.6938 96.4845 63.7569 94.9143 63.7569C93.8934 63.7569 93.2214 64.2092 92.8789 64.9587H92.7755V63.8926H91.3733V70.9099ZM102.274 73.3847C104.264 73.3847 105.524 72.3638 105.524 70.7678V63.8926H104.129V65.0427H104.045C103.638 64.2544 102.875 63.7698 101.893 63.7698C100.071 63.7698 98.9528 65.1849 98.9528 67.188V67.2009C98.9528 69.1782 100.064 70.5674 101.867 70.5674C102.83 70.5674 103.605 70.141 104.032 69.3785H104.135V70.7613C104.135 71.7176 103.45 72.2604 102.294 72.2604C101.344 72.2604 100.775 71.9179 100.659 71.4333L100.652 71.4204H99.2372L99.2242 71.4333C99.3922 72.6029 100.491 73.3847 102.274 73.3847ZM102.255 69.4108C101.059 69.4108 100.387 68.4997 100.387 67.1945V67.1815C100.387 65.8763 101.059 64.9587 102.255 64.9587C103.437 64.9587 104.161 65.8763 104.161 67.1815V67.1945C104.161 68.5062 103.444 69.4108 102.255 69.4108ZM108.044 67.8212H109.35L109.479 61.5793H107.909L108.044 67.8212ZM108.703 71.0521C109.298 71.0521 109.692 70.6644 109.692 70.0893C109.692 69.5077 109.298 69.12 108.703 69.12C108.103 69.12 107.702 69.5077 107.702 70.0893C107.702 70.6644 108.103 71.0521 108.703 71.0521Z" fill="white"/>
<path d="M16.9429 84.8901H17.8733V81.4939H21.9674V84.8901H22.8979V77.4308H21.9674V80.6565H17.8733V77.4308H16.9429V84.8901ZM26.9765 84.9884C28.5635 84.9884 29.5457 83.8925 29.5457 82.109V82.0987C29.5457 80.3101 28.5635 79.2194 26.9765 79.2194C25.3895 79.2194 24.4074 80.3101 24.4074 82.0987V82.109C24.4074 83.8925 25.3895 84.9884 26.9765 84.9884ZM26.9765 84.1923C25.922 84.1923 25.3275 83.422 25.3275 82.109V82.0987C25.3275 80.7805 25.922 80.0155 26.9765 80.0155C28.031 80.0155 28.6255 80.7805 28.6255 82.0987V82.109C28.6255 83.422 28.031 84.1923 26.9765 84.1923ZM31.8098 84.8901H32.7093L33.9499 80.5789H34.0326L35.2784 84.8901H36.1831L37.7442 79.3176H36.8499L35.754 83.7736H35.6713L34.4255 79.3176H33.5726L32.3268 83.7736H32.244L31.1482 79.3176H30.2487L31.8098 84.8901ZM44.2007 84.9884C45.5395 84.9884 46.2891 84.2698 46.5165 83.2618L46.5269 83.2049L45.6378 83.2101L45.6274 83.2411C45.4206 83.8614 44.9451 84.1923 44.1955 84.1923C43.203 84.1923 42.562 83.3704 42.562 82.0884V82.078C42.562 80.8219 43.1927 80.0155 44.1955 80.0155C44.9968 80.0155 45.493 80.46 45.6326 81.008L45.6378 81.0235H46.5321L46.5269 80.9925C46.3615 80 45.5499 79.2194 44.1955 79.2194C42.6344 79.2194 41.6419 80.3463 41.6419 82.078V82.0884C41.6419 83.8563 42.6396 84.9884 44.2007 84.9884ZM49.3752 84.9884C50.1247 84.9884 50.7089 84.6627 51.0604 84.0682H51.1431V84.8901H52.0425V81.0752C52.0425 79.9172 51.2827 79.2194 49.9231 79.2194C48.7342 79.2194 47.8864 79.8087 47.7417 80.6823L47.7365 80.7133H48.636L48.6411 80.6978C48.7859 80.2636 49.2253 80.0155 49.8921 80.0155C50.7244 80.0155 51.1431 80.3877 51.1431 81.0752V81.5818L49.5458 81.68C48.2483 81.7575 47.5142 82.3313 47.5142 83.3238V83.3342C47.5142 84.3474 48.3155 84.9884 49.3752 84.9884ZM48.4344 83.3135V83.3032C48.4344 82.75 48.8066 82.4502 49.6543 82.3985L51.1431 82.3055V82.8121C51.1431 83.6081 50.4762 84.2078 49.5613 84.2078C48.9151 84.2078 48.4344 83.8769 48.4344 83.3135ZM53.6864 84.8901H54.5859V81.5921C54.5859 80.6151 55.1493 80.0155 56.0384 80.0155C56.9276 80.0155 57.3411 80.4962 57.3411 81.4991V84.8901H58.2406V81.282C58.2406 79.9586 57.5427 79.2194 56.2917 79.2194C55.4698 79.2194 54.9477 79.5657 54.6686 80.155H54.5859V79.3176H53.6864V84.8901ZM63.932 84.8901H64.8315L66.0721 80.5789H66.1548L67.4006 84.8901H68.3052L69.8664 79.3176H68.9721L67.8762 83.7736H67.7935L66.5477 79.3176H65.6947L64.4489 83.7736H64.3662L63.2703 79.3176H62.3709L63.932 84.8901ZM73.123 84.9884C74.4361 84.9884 75.2321 84.244 75.4234 83.4893L75.4337 83.4479H74.5343L74.5136 83.4944C74.3637 83.8304 73.8984 84.1871 73.1437 84.1871C72.1512 84.1871 71.5154 83.5151 71.4895 82.3623H75.5009V82.0108C75.5009 80.3463 74.5808 79.2194 73.0662 79.2194C71.5516 79.2194 70.5694 80.398 70.5694 82.1194V82.1245C70.5694 83.8718 71.5309 84.9884 73.123 84.9884ZM73.061 80.0206C73.8829 80.0206 74.4929 80.5427 74.586 81.6438H71.505C71.6033 80.5841 72.2339 80.0206 73.061 80.0206ZM79.9362 84.8901H80.8357V81.5921C80.8357 80.6151 81.3991 80.0155 82.2883 80.0155C83.1774 80.0155 83.5909 80.4962 83.5909 81.4991V84.8901H84.4904V81.282C84.4904 79.9586 83.7925 79.2194 82.5416 79.2194C81.7196 79.2194 81.1975 79.5657 80.9184 80.155H80.8357V77.1051H79.9362V84.8901ZM88.3932 84.9884C89.7062 84.9884 90.5023 84.244 90.6936 83.4893L90.7039 83.4479H89.8044L89.7838 83.4944C89.6339 83.8304 89.1686 84.1871 88.4139 84.1871C87.4214 84.1871 86.7856 83.5151 86.7597 82.3623H90.7711V82.0108C90.7711 80.3463 89.851 79.2194 88.3364 79.2194C86.8217 79.2194 85.8396 80.398 85.8396 82.1194V82.1245C85.8396 83.8718 86.8011 84.9884 88.3932 84.9884ZM88.3312 80.0206C89.1531 80.0206 89.7631 80.5427 89.8561 81.6438H86.7752C86.8734 80.5841 87.5041 80.0206 88.3312 80.0206ZM92.2185 84.8901H93.118V77.1051H92.2185V84.8901ZM94.8445 86.7511H95.744V84.0114H95.8267C96.1317 84.6058 96.7985 84.9884 97.5636 84.9884C98.98 84.9884 99.9001 83.8563 99.9001 82.109V82.0987C99.9001 80.3618 98.9748 79.2194 97.5636 79.2194C96.7882 79.2194 96.1679 79.5864 95.8267 80.2067H95.744V79.3176H94.8445V86.7511ZM97.3568 84.1923C96.3436 84.1923 95.7233 83.3962 95.7233 82.109V82.0987C95.7233 80.8115 96.3436 80.0155 97.3568 80.0155C98.3752 80.0155 98.98 80.8012 98.98 82.0987V82.109C98.98 83.4065 98.3752 84.1923 97.3568 84.1923ZM104.77 86.8441C105.757 86.8441 106.217 86.4823 106.677 85.2313L108.853 79.3176H107.907L106.382 83.9028H106.3L104.77 79.3176H103.808L105.871 84.8953L105.767 85.2261C105.566 85.8671 105.256 86.0998 104.744 86.0998C104.62 86.0998 104.48 86.0946 104.372 86.0739V86.8131C104.496 86.8338 104.651 86.8441 104.77 86.8441ZM112.126 84.9884C113.713 84.9884 114.695 83.8925 114.695 82.109V82.0987C114.695 80.3101 113.713 79.2194 112.126 79.2194C110.539 79.2194 109.556 80.3101 109.556 82.0987V82.109C109.556 83.8925 110.539 84.9884 112.126 84.9884ZM112.126 84.1923C111.071 84.1923 110.477 83.422 110.477 82.109V82.0987C110.477 80.7805 111.071 80.0155 112.126 80.0155C113.18 80.0155 113.775 80.7805 113.775 82.0987V82.109C113.775 83.422 113.18 84.1923 112.126 84.1923ZM117.957 84.9884C118.773 84.9884 119.337 84.6523 119.611 84.0579H119.693V84.8901H120.593V79.3176H119.693V82.6156C119.693 83.5926 119.171 84.1923 118.189 84.1923C117.3 84.1923 116.938 83.7115 116.938 82.7087V79.3176H116.039V82.9258C116.039 84.244 116.69 84.9884 117.957 84.9884ZM127.241 84.9315C127.416 84.9315 127.587 84.9108 127.763 84.8798V84.1147C127.597 84.1302 127.509 84.1354 127.349 84.1354C126.77 84.1354 126.543 83.8718 126.543 83.2153V80.062H127.763V79.3176H126.543V77.8754H125.612V79.3176H124.734V80.062H125.612V83.4427C125.612 84.5076 126.093 84.9315 127.241 84.9315ZM131.314 84.9884C132.901 84.9884 133.883 83.8925 133.883 82.109V82.0987C133.883 80.3101 132.901 79.2194 131.314 79.2194C129.727 79.2194 128.745 80.3101 128.745 82.0987V82.109C128.745 83.8925 129.727 84.9884 131.314 84.9884ZM131.314 84.1923C130.26 84.1923 129.665 83.422 129.665 82.109V82.0987C129.665 80.7805 130.26 80.0155 131.314 80.0155C132.369 80.0155 132.963 80.7805 132.963 82.0987V82.109C132.963 83.422 132.369 84.1923 131.314 84.1923ZM137.336 84.9884C138.112 84.9884 138.732 84.6213 139.073 84.001H139.156V84.8901H140.055V77.1051H139.156V80.1964H139.073C138.768 79.6019 138.101 79.2194 137.336 79.2194C135.92 79.2194 135 80.3515 135 82.0987V82.109C135 83.8459 135.925 84.9884 137.336 84.9884ZM137.543 84.1923C136.525 84.1923 135.92 83.4065 135.92 82.109V82.0987C135.92 80.8012 136.525 80.0155 137.543 80.0155C138.556 80.0155 139.177 80.8115 139.177 82.0987V82.109C139.177 83.3962 138.556 84.1923 137.543 84.1923ZM143.312 84.9884C144.062 84.9884 144.646 84.6627 144.997 84.0682H145.08V84.8901H145.979V81.0752C145.979 79.9172 145.22 79.2194 143.86 79.2194C142.671 79.2194 141.823 79.8087 141.679 80.6823L141.673 80.7133H142.573L142.578 80.6978C142.723 80.2636 143.162 80.0155 143.829 80.0155C144.661 80.0155 145.08 80.3877 145.08 81.0752V81.5818L143.483 81.68C142.185 81.7575 141.451 82.3313 141.451 83.3238V83.3342C141.451 84.3474 142.252 84.9884 143.312 84.9884ZM142.371 83.3135V83.3032C142.371 82.75 142.743 82.4502 143.591 82.3985L145.08 82.3055V82.8121C145.08 83.6081 144.413 84.2078 143.498 84.2078C142.852 84.2078 142.371 83.8769 142.371 83.3135ZM147.892 86.8441C148.879 86.8441 149.34 86.4823 149.8 85.2313L151.976 79.3176H151.03L149.505 83.9028H149.422L147.892 79.3176H146.931L148.993 84.8953L148.89 85.2261C148.688 85.8671 148.378 86.0998 147.866 86.0998C147.742 86.0998 147.603 86.0946 147.494 86.0739V86.8131C147.618 86.8338 147.773 86.8441 147.892 86.8441ZM154.359 82.5846H155.264V82.2486C155.264 81.7058 155.45 81.4164 156.106 81.0287C156.768 80.6306 157.187 80.0568 157.187 79.2504V79.2401C157.187 78.1804 156.297 77.3739 154.995 77.3739C153.542 77.3739 152.798 78.2631 152.741 79.3745V79.3848L153.62 79.3796L153.63 79.3745C153.682 78.6404 154.178 78.1804 154.959 78.1804C155.729 78.1804 156.225 78.6508 156.225 79.2866V79.2969C156.225 79.8449 155.992 80.1705 155.393 80.5376C154.685 80.9615 154.354 81.4267 154.359 82.109V82.5846ZM154.881 84.9832C155.3 84.9832 155.594 84.6834 155.594 84.2646C155.594 83.8408 155.3 83.5409 154.881 83.5409C154.462 83.5409 154.163 83.8408 154.163 84.2646C154.163 84.6834 154.462 84.9832 154.881 84.9832Z" fill="white"/>
<defs>
<filter id="filter0_dd" x="10.3465" y="108.863" width="226.84" height="37.6782" filterUnits="userSpaceOnUse" color-interpolation-filters="sRGB">
<feFlood flood-opacity="0" result="BackgroundImageFix"/>
<feColorMatrix in="SourceAlpha" type="matrix" values="0 0 0 0 0 0 0 0 0 0 0 0 0 0 0 0 0 0 127 0" result="hardAlpha"/>
<feOffset dy="1.32335"/>
<feGaussianBlur stdDeviation="1.32335"/>
<feColorMatrix type="matrix" values="0 0 0 0 0 0 0 0 0 0 0 0 0 0 0 0 0 0 0.118971 0"/>
<feBlend mode="normal" in2="BackgroundImageFix" result="effect1_dropShadow"/>
<feColorMatrix in="SourceAlpha" type="matrix" values="0 0 0 0 0 0 0 0 0 0 0 0 0 0 0 0 0 0 127 0" result="hardAlpha"/>
<feOffset dy="-0.661673"/>
<feGaussianBlur stdDeviation="0.661673"/>
<feColorMatrix type="matrix" values="0 0 0 0 0 0 0 0 0 0 0 0 0 0 0 0 0 0 0.165563 0"/>
<feBlend mode="normal" in2="effect1_dropShadow" result="effect2_dropShadow"/>
<feBlend mode="normal" in="SourceGraphic" in2="effect2_dropShadow" result="shape"/>
</filter>
</defs>
</svg>
